<?xml version="1.0" standalone="no"?>
<!DOCTYPE svg PUBLIC "-//W3C//DTD SVG 20010904//EN"
 "http://www.w3.org/TR/2001/REC-SVG-20010904/DTD/svg10.dtd">
<svg version="1.0" xmlns="http://www.w3.org/2000/svg"
 width="816.000000pt" height="1224.000000pt" viewBox="0 0 816.000000 1224.000000"
 preserveAspectRatio="xMidYMid meet">

<g transform="translate(0.000000,1224.000000) scale(0.100000,-0.100000)"
fill="#000000" stroke="none">
<path d="M3900 11884 c-229 -25 -322 -42 -412 -74 -36 -12 -83 -20 -124 -20
-57 0 -65 -2 -54 -14 6 -8 28 -17 48 -19 33 -3 32 -4 -10 -5 -31 -1 -48 -6
-48 -14 0 -10 -39 -13 -162 -13 -111 0 -178 -4 -208 -14 -175 -54 -295 -116
-430 -223 -47 -37 -122 -97 -168 -132 -46 -36 -107 -85 -135 -110 -58 -49
-204 -129 -263 -145 -46 -12 -159 -15 -192 -5 -21 6 -23 4 -20 -17 5 -36 137
-99 206 -99 18 0 32 -4 32 -9 0 -4 -26 -24 -57 -44 -168 -104 -349 -370 -378
-554 -4 -24 -11 -45 -16 -49 -11 -6 -12 -34 -1 -34 4 0 13 12 20 28 26 56 43
80 92 126 56 52 70 55 46 7 -51 -98 -86 -206 -86 -265 0 -80 10 -137 22 -130
10 7 5 -46 -12 -116 -5 -19 -14 -62 -20 -95 -6 -33 -18 -90 -26 -126 -16 -75
-18 -196 -4 -219 7 -12 13 -10 33 14 l24 28 7 -32 c3 -18 6 -60 6 -94 0 -85
26 -265 45 -323 9 -26 27 -59 39 -73 35 -37 46 -64 46 -110 0 -44 12 -104 37
-183 l15 -47 -35 -35 c-45 -45 -60 -121 -61 -300 -2 -274 13 -364 102 -640 31
-96 50 -164 72 -260 12 -49 33 -117 47 -150 31 -70 100 -147 158 -174 38 -18
41 -22 53 -82 83 -408 175 -593 418 -840 l75 -76 -30 -65 c-16 -36 -41 -104
-56 -151 l-27 -85 -91 -53 c-125 -72 -303 -163 -352 -179 -22 -7 -44 -16 -50
-20 -5 -4 -59 -26 -120 -49 -60 -24 -166 -65 -235 -92 -69 -27 -128 -49 -132
-49 -6 0 -419 -170 -478 -197 -250 -115 -417 -213 -517 -306 -59 -54 -174
-197 -244 -302 -82 -123 -223 -400 -260 -510 -7 -22 -17 -44 -21 -49 -4 -6 -8
-911 -8 -2013 l0 -2003 328 1 c227 0 319 4 300 10 -20 8 -31 23 -45 62 -26 75
-26 330 0 442 20 82 71 205 87 205 9 0 23 -73 24 -125 0 -16 -8 -74 -18 -129
-12 -69 -14 -102 -7 -109 15 -15 20 -7 32 59 6 32 18 74 26 92 14 30 14 41 -8
150 -15 76 -23 154 -24 222 0 97 2 108 28 153 38 64 41 64 181 0 55 -25 139
-60 187 -78 48 -19 106 -43 130 -55 43 -22 149 -116 149 -131 0 -5 -18 -9 -41
-9 -45 0 -52 -24 -8 -27 245 -18 343 -27 439 -40 126 -17 233 -13 314 12 103
32 233 45 441 45 l206 0 35 -37 c40 -44 47 -63 42 -122 -3 -37 -9 -47 -44 -73
-29 -21 -255 -108 -281 -108 -6 0 -61 88 -68 108 -19 63 130 126 219 93 13 -6
45 -26 71 -45 65 -50 78 -45 25 9 -49 50 -112 85 -152 85 -33 0 -113 -34 -155
-66 -46 -35 -46 -85 1 -145 19 -23 32 -47 29 -52 -9 -15 -183 -93 -233 -105
-25 -6 -97 -16 -160 -22 -121 -11 -287 -37 -454 -72 -188 -39 -299 -7 -465
132 -81 68 -101 80 -101 61 0 -22 163 -160 231 -196 70 -37 79 -40 182 -43 84
-3 126 0 195 17 96 23 168 33 377 56 180 19 205 26 355 95 69 32 175 75 235
95 130 44 193 76 295 150 88 64 147 88 250 104 41 7 118 22 172 33 53 12 103
18 112 15 11 -5 16 -19 16 -51 0 -33 7 -52 25 -74 29 -35 87 -65 108 -56 17 6
-72 -168 -135 -268 -34 -52 -135 -167 -202 -230 -28 -26 -35 -28 -145 -31 -64
-1 662 -3 1614 -4 952 0 1707 3 1680 7 -65 9 -96 26 -170 90 -60 52 -144 140
-145 151 0 8 179 -43 234 -66 20 -9 80 -24 132 -35 96 -20 145 -18 190 8 15 9
5 11 -51 12 -82 0 -155 16 -320 69 -66 22 -151 47 -190 56 -112 28 -473 149
-588 199 -177 75 -283 154 -313 231 -19 50 -13 101 14 135 l18 22 89 -26 c115
-34 554 -133 665 -151 47 -7 126 -21 175 -29 50 -9 194 -23 320 -31 127 -8
253 -17 280 -20 51 -5 96 8 65 19 -46 17 -122 26 -255 31 -283 12 -489 44
-965 150 -358 79 -410 98 -491 181 -40 41 -43 48 -47 106 -3 56 1 69 28 116
l30 52 38 -16 c20 -8 72 -24 116 -34 43 -11 81 -21 83 -24 12 -11 15 -164 4
-184 -16 -30 -83 -47 -134 -34 -34 9 -38 8 -26 -3 14 -13 57 -19 110 -16 59 3
100 88 80 166 -6 23 -13 50 -17 59 -5 14 7 16 117 16 121 0 185 -3 729 -35
146 -8 312 -15 370 -15 118 0 372 25 397 38 34 19 -11 22 -169 11 -206 -15
-347 -14 -678 5 -146 9 -384 20 -530 26 -364 15 -408 23 -495 95 -55 44 -75
88 -75 162 0 71 31 126 93 166 69 45 152 55 547 67 201 6 432 15 515 20 97 6
232 6 385 0 234 -10 355 -4 399 19 35 19 24 30 -21 19 -52 -11 -802 -1 -806
11 -6 18 19 21 170 28 126 5 171 3 243 -12 119 -23 360 -18 418 9 43 21 50 42
10 32 -16 -4 -96 -10 -178 -13 -124 -4 -165 -2 -230 13 -103 24 -273 24 -430
2 -156 -22 -497 -43 -570 -34 -114 13 -176 57 -201 144 -20 69 -11 123 28 168
60 68 138 98 331 130 51 8 148 24 217 35 69 12 163 31 210 44 99 27 222 52
300 60 77 8 342 -20 422 -45 121 -37 268 -153 317 -248 22 -42 41 -140 41
-209 0 -63 34 -142 90 -208 85 -102 95 -127 95 -230 -1 -80 -6 -104 -44 -215
-39 -111 -45 -139 -52 -250 -11 -185 -36 -270 -122 -412 -25 -41 -49 -88 -53
-104 -6 -26 -3 -24 35 21 105 126 170 317 169 493 -1 94 4 124 17 110 13 -13
27 -204 22 -313 -6 -149 -35 -254 -112 -405 -70 -137 -226 -346 -282 -379 -13
-7 148 -10 575 -11 l592 0 0 2545 0 2545 -22 9 c-13 5 -72 32 -133 61 -107 51
-409 174 -490 200 -57 18 -467 182 -550 220 -38 17 -101 44 -140 60 -115 46
-323 141 -419 193 -152 80 -236 118 -277 125 -41 7 -45 11 -92 92 -54 93 -83
153 -118 245 -42 111 -108 246 -139 285 -33 42 -110 95 -152 105 -34 9 -36 28
-9 128 11 40 25 97 31 127 7 30 17 72 23 93 10 35 11 36 29 21 26 -24 122 -24
167 0 98 52 206 195 318 422 74 149 153 340 153 368 0 10 4 26 10 36 11 20 37
172 51 295 10 90 3 289 -13 380 -19 104 -64 174 -127 196 -35 12 -35 11 -18
134 9 61 22 105 39 135 36 62 58 181 58 310 0 60 4 111 8 114 20 12 34 180 27
316 -7 135 -6 138 15 145 14 5 19 12 15 24 -3 10 -1 30 4 45 22 57 -72 424
-135 526 -39 64 -67 134 -81 205 -21 100 -67 212 -110 269 -47 62 -192 186
-256 220 -27 14 -64 26 -82 26 -18 0 -38 7 -45 15 -24 30 56 29 136 -2 9 -3
12 0 9 8 -7 19 -53 39 -89 39 -17 0 -38 5 -46 10 -44 29 117 -5 173 -36 33
-18 37 -1 5 20 -13 8 -72 35 -131 60 -101 43 -113 46 -198 46 -50 0 -100 -5
-111 -11 -24 -13 -38 -2 -92 81 -19 30 -48 73 -64 95 -44 61 -55 98 -50 165 3
46 2 57 -6 43 -17 -28 -12 -288 7 -345 19 -60 9 -62 -22 -3 -33 63 -202 233
-286 287 -87 56 -115 71 -122 65 -5 -6 6 -16 77 -70 30 -22 44 -40 42 -52 -3
-13 1 -16 15 -11 14 6 15 4 6 -5 -9 -9 -23 0 -59 36 -66 65 -182 131 -284 161
-47 14 -95 29 -108 34 -25 11 -302 38 -422 42 -41 2 -122 -2 -180 -8z m114
-34 c-11 -11 -114 -20 -114 -10 0 4 19 7 42 8 23 1 44 4 46 7 3 3 12 5 21 5 9
0 12 -3 5 -10z m194 2 c45 -1 82 -5 82 -10 0 -4 -28 -7 -62 -6 -126 3 -196 9
-192 15 2 3 23 6 46 5 24 -1 80 -3 126 -4z m-333 -22 c-27 -12 -43 -12 -25 0
8 5 22 9 30 9 10 0 8 -3 -5 -9z m485 -11 c-10 -18 -13 -19 -23 -6 -7 8 -19 17
-27 20 -8 3 2 6 23 6 35 1 37 0 27 -20z m-483 -35 c-3 -3 -12 -4 -19 -1 -8 3
-5 6 6 6 11 1 17 -2 13 -5z m-382 -25 c-4 -5 -25 -8 -48 -8 -38 1 -39 2 -12 8
47 10 66 11 60 0z m1165 -9 c0 -5 -2 -10 -4 -10 -3 0 -8 5 -11 10 -3 6 -1 10
4 10 6 0 11 -4 11 -10z m122 -58 c24 -17 54 -42 68 -57 23 -26 24 -27 3 -14
-13 8 -23 17 -23 21 0 5 -6 8 -13 8 -8 0 -23 10 -35 23 -12 13 -42 34 -67 46
-25 12 -45 24 -45 27 0 9 71 -25 112 -54z m-1772 -10 c0 -4 -9 -8 -19 -8 -11
0 -17 4 -15 8 3 4 12 8 20 8 8 0 14 -4 14 -8z m25 -2 c3 -5 1 -10 -4 -10 -6 0
-11 5 -11 10 0 6 2 10 4 10 3 0 8 -4 11 -10z m199 -1 c3 -3 -6 -6 -20 -7 -14
-1 -23 2 -20 7 6 9 31 9 40 0z m-314 -19 c0 -5 -5 -10 -11 -10 -5 0 -7 5 -4
10 3 6 8 10 11 10 2 0 4 -4 4 -10z m-70 -20 c-8 -5 -19 -10 -25 -10 -5 0 -3 5
5 10 8 5 20 10 25 10 6 0 3 -5 -5 -10z m2250 -131 c27 -36 25 -45 -2 -18 -13
11 -38 32 -55 46 -18 14 -33 32 -33 41 0 8 -3 12 -7 9 -6 -7 -32 22 -33 36 0
13 108 -82 130 -114z m-2293 105 c-3 -3 -12 -4 -19 -1 -8 3 -5 6 6 6 11 1 17
-2 13 -5z m-97 -38 c0 -2 -7 -7 -16 -10 -8 -3 -12 -2 -9 4 6 10 25 14 25 6z
m-65 -36 c-3 -5 -12 -10 -18 -10 -7 0 -6 4 3 10 19 12 23 12 15 0z m2635 -46
c0 -8 -4 -12 -10 -9 -5 3 -10 13 -10 21 0 8 5 12 10 9 6 -3 10 -13 10 -21z
m-100 -86 c24 -40 25 -48 4 -48 -8 0 -13 3 -11 8 3 4 -5 16 -16 27 -17 17 -19
17 -14 3 3 -10 1 -20 -5 -24 -6 -4 -8 -3 -4 4 3 6 -1 18 -10 26 -14 15 -14 16
6 16 12 0 18 5 15 10 -3 6 -1 10 5 10 5 0 19 -15 30 -32z m-513 -52 c20 -18
36 -30 70 -54 33 -24 129 -140 121 -147 -3 -3 -30 25 -62 62 -61 70 -111 112
-188 157 -27 15 -48 32 -48 37 0 9 83 -34 107 -55z m707 8 c9 -24 2 -26 -12
-4 -7 11 -8 20 -3 20 5 0 12 -7 15 -16z m-754 -45 l45 -40 -55 37 c-68 46 -66
44 -49 44 8 0 34 -19 59 -41z m895 12 c-6 -6 -30 -12 -55 -15 -43 -5 -44 -4
-20 9 28 16 90 21 75 6z m125 -15 c0 -2 -7 -7 -16 -10 -8 -3 -12 -2 -9 4 6 10
25 14 25 6z m-620 -65 c0 -20 -13 -4 -28 34 l-13 30 21 -25 c11 -14 20 -32 20
-39z m-2715 7 c-57 -51 -105 -82 -105 -68 0 6 3 10 8 10 4 0 32 23 61 50 30
28 61 50 69 50 8 0 -7 -19 -33 -42z m2640 -11 c8 -16 15 -35 15 -41 0 -18 -22
10 -41 55 -15 32 -16 39 -4 29 8 -7 21 -26 30 -43z m-46 -22 c0 -5 -6 -1 -14
9 -8 11 -15 24 -15 30 0 5 7 1 15 -10 8 -10 14 -23 14 -29z m-456 -21 c76 -69
123 -120 143 -156 25 -47 1 -30 -41 28 -37 51 -109 123 -167 166 -13 9 -17 17
-10 18 7 0 40 -25 75 -56z m-52 -16 c69 -56 201 -230 185 -245 -3 -4 -6 -2 -6
4 0 21 -91 134 -102 127 -6 -4 -8 -3 -5 3 4 6 -24 40 -61 77 -71 70 -77 87
-11 34z m689 10 c0 -18 -2 -20 -9 -8 -6 8 -7 18 -5 22 9 14 14 9 14 -14z m52
-8 c3 -16 1 -30 -3 -30 -4 0 -9 14 -11 30 -3 17 -1 30 3 30 4 0 9 -13 11 -30z
m636 -2 c28 -11 52 -24 52 -29 0 -13 -57 -11 -66 2 -3 6 -20 9 -36 7 -22 -4
-28 -1 -23 10 3 10 0 12 -10 9 -8 -4 -17 -3 -19 2 -3 4 -19 8 -35 9 -17 0 -38
6 -48 11 -30 19 125 1 185 -21z m-2083 2 c-3 -5 -16 -10 -28 -10 -18 0 -19 2
-7 10 20 13 43 13 35 0z m185 -6 c0 -2 -16 -4 -36 -4 -19 0 -33 4 -30 8 5 8
66 4 66 -4z m-1600 -8 c0 -2 -7 -7 -16 -10 -8 -3 -12 -2 -9 4 6 10 25 14 25 6z
m1728 -9 c12 -1 22 -5 22 -8 0 -4 14 -12 30 -19 17 -7 30 -16 30 -21 0 -13 -8
-11 -38 6 -15 8 -58 24 -97 35 -66 19 -67 20 -20 14 28 -3 60 -6 73 -7z m1073
-70 c-5 -5 -11 4 -15 20 -4 15 -9 37 -12 48 -3 11 4 2 16 -19 11 -23 16 -44
11 -49z m-77 57 c3 -8 2 -12 -4 -9 -6 3 -10 10 -10 16 0 14 7 11 14 -7z
m-1148 -15 c70 -9 142 -34 132 -44 -2 -2 -24 2 -48 10 -25 8 -76 21 -115 29
-86 17 -72 20 31 5z m1055 -69 c11 -38 19 -75 16 -82 -2 -7 -8 5 -12 27 -4 22
-16 58 -26 79 -22 46 -22 46 -9 46 5 0 19 -31 31 -70z m965 48 c19 -23 19 -23
-1 -7 -11 10 -29 19 -40 22 -19 4 -19 5 1 6 11 0 29 -9 40 -21z m-848 -26 c9
-25 9 -33 0 -30 -13 5 -29 54 -20 62 7 8 7 7 20 -32z m795 15 c-2 -4 3 -10 12
-13 9 -4 14 -13 11 -21 -3 -8 -2 -11 4 -8 5 3 14 -3 19 -14 16 -29 14 -33 -11
-19 -29 16 -39 30 -33 45 2 7 -8 19 -23 27 l-27 14 27 -1 c14 -1 24 -5 21 -10z
m-1787 -23 c18 -14 18 -14 -6 -3 -31 14 -36 19 -24 19 6 0 19 -7 30 -16z
m1749 -4 c3 -6 -1 -7 -9 -4 -18 7 -21 14 -7 14 6 0 13 -4 16 -10z m-915 -37
c0 -20 -16 -8 -23 17 -4 17 -3 19 9 9 8 -6 14 -18 14 -26z m-2960 7 c0 -5 5
-10 11 -10 5 0 7 6 3 13 -4 6 1 4 12 -5 16 -13 30 -15 82 -9 34 4 62 4 62 -1
0 -9 -3 -10 -45 -14 -102 -10 -203 4 -190 27 8 12 65 12 65 -1z m2300 -5 c11
-13 10 -14 -4 -9 -9 3 -16 10 -16 15 0 13 6 11 20 -6z m1567 9 c-3 -3 -12 -4
-19 -1 -8 3 -5 6 6 6 11 1 17 -2 13 -5z m-3618 -23 c0 -3 -4 -15 -8 -25 -7
-18 -9 -17 -18 11 -10 28 -9 30 8 26 10 -3 19 -8 18 -12z m1084 -22 c-4 -4
-21 -11 -38 -14 l-30 -7 25 14 c27 15 56 20 43 7z m2771 -5 c5 -14 4 -15 -9
-4 -17 14 -19 20 -6 20 5 0 12 -7 15 -16z m-3892 -16 c-6 -6 -15 -8 -19 -4 -4
4 -1 11 7 16 19 12 27 3 12 -12z m3748 2 c-6 -11 -20 -20 -33 -19 -15 0 -17 2
-7 6 8 4 21 12 28 20 19 19 24 16 12 -7z m216 -61 c26 -39 53 -90 61 -112 8
-22 19 -50 24 -61 8 -17 6 -16 -12 4 -80 93 -107 119 -112 106 -3 -8 -3 -17 1
-20 3 -4 7 -13 8 -20 1 -8 22 -38 46 -68 52 -64 142 -234 132 -250 -4 -7 -3
-8 4 -4 12 7 58 -71 48 -82 -7 -7 -7 -7 -42 48 -15 25 -27 48 -26 53 6 20 -73
135 -85 124 -3 -4 -22 5 -41 20 -20 15 -32 22 -29 16 4 -7 3 -14 -3 -18 -13
-8 -13 -25 1 -25 5 0 7 5 4 11 -4 6 2 5 14 -3 12 -7 16 -15 11 -16 -7 -3 -6
-10 2 -20 11 -15 11 -15 -3 -5 -9 7 -20 9 -24 5 -5 -4 -4 0 0 8 8 13 7 13 -8
1 -17 -14 -22 -8 -18 25 2 16 -30 27 -43 14 -5 -5 -14 -10 -20 -10 -5 0 -1 6
10 14 18 14 18 15 -7 21 -14 3 -26 12 -26 20 0 9 8 8 31 -6 22 -13 33 -15 43
-7 9 7 13 7 13 0 0 -6 -5 -13 -10 -15 -6 -3 -5 -4 2 -3 7 1 15 11 17 21 2 13
-1 16 -13 12 -8 -3 -18 -2 -21 3 -3 4 1 11 7 13 8 3 6 6 -5 6 -10 1 -15 5 -12
11 3 6 -1 7 -9 4 -19 -7 -22 16 -4 34 19 19 38 14 39 -10 0 -13 3 -17 6 -10 3
7 1 20 -3 30 -4 9 -6 21 -5 25 1 5 -3 6 -8 3 -5 -4 -17 1 -26 10 -8 9 -23 14
-33 12 -9 -3 -25 3 -36 13 -18 17 -17 18 5 13 l24 -6 -24 21 c-12 12 -27 18
-32 15 -5 -3 -9 0 -9 6 0 7 6 10 14 7 8 -3 20 1 27 9 9 11 15 12 25 3 8 -6 14
-8 14 -3 0 5 8 0 17 -11 15 -20 15 -20 10 2 -3 16 0 24 14 28 20 7 34 39 24
55 -3 5 -4 10 -1 10 2 0 26 -32 52 -71z m-3990 46 c4 -8 11 -12 17 -8 6 3 7 1
3 -5 -4 -6 -14 -8 -22 -5 -9 3 -28 -4 -44 -16 -16 -11 -32 -21 -36 -21 -3 0
-18 -9 -34 -20 -15 -11 -30 -17 -34 -13 -3 3 -6 1 -6 -5 0 -7 -9 -12 -20 -12
-11 0 -20 -4 -20 -10 0 -5 -8 -10 -17 -10 -29 0 12 34 108 90 93 55 97 56 105
35z m3803 -15 c4 0 8 -7 8 -15 0 -8 -4 -15 -9 -15 -4 0 -8 5 -8 11 0 6 -7 9
-15 5 -18 -7 -19 -2 -2 24 9 17 13 18 15 5 2 -8 7 -15 11 -15z m-2794 11 c-12
-11 -83 -26 -73 -16 6 6 26 12 78 24 2 1 0 -3 -5 -8z m1194 -76 c88 -88 99
-110 25 -50 -23 19 -47 35 -53 35 -5 0 -13 5 -16 10 -4 6 -3 10 2 9 32 -6 7
31 -42 62 -16 10 -23 19 -15 19 8 0 53 -38 99 -85z m1708 66 c2 -27 -24 -35
-37 -11 -9 16 -8 18 6 13 12 -4 15 -3 10 5 -4 7 -1 12 6 12 8 0 14 -9 15 -19z
m-3105 -5 c59 -1 108 -4 108 -7 0 -22 -305 -15 -355 7 -27 12 -21 13 54 7 46
-3 133 -7 193 -7z m1425 -8 c11 -13 23 -30 27 -38 4 -8 -1 -6 -11 5 -10 11
-26 28 -36 38 -10 9 -14 17 -9 17 4 0 18 -10 29 -22z m323 -13 c0 -5 -5 -3
-10 5 -5 8 -10 20 -10 25 0 6 5 3 10 -5 5 -8 10 -19 10 -25z m-2487 6 c-2 -10
1 -24 9 -32 7 -8 13 -23 13 -33 0 -15 -8 -20 -32 -21 -18 -1 -30 2 -27 7 3 5
11 5 17 1 7 -4 6 0 -2 10 -10 13 -10 17 -1 17 9 0 9 4 -1 17 -12 15 -12 16 5
9 20 -7 20 -7 0 15 -10 12 -13 19 -6 15 6 -4 12 -2 12 3 0 6 4 11 9 11 5 0 7
-8 4 -19z m1982 9 c3 -5 1 -10 -4 -10 -6 0 -11 5 -11 10 0 6 2 10 4 10 3 0 8
-4 11 -10z m792 -12 c-3 -8 -6 -5 -6 6 -1 11 2 17 5 13 3 -3 4 -12 1 -19z
m-2842 -26 c-8 -8 -25 10 -19 20 4 6 9 5 15 -3 4 -7 6 -15 4 -17z m1065 13
c-19 -7 -44 -13 -55 -13 -13 0 -7 5 15 13 19 7 44 13 55 13 13 0 7 -5 -15 -13z
m1447 -17 c-3 -8 -6 -5 -6 6 -1 11 2 17 5 13 3 -3 4 -12 1 -19z m-1735 -3
c193 0 251 -13 73 -16 -54 -1 -112 -5 -127 -10 -17 -4 -30 -4 -34 2 -4 6 -13
4 -24 -6 -11 -10 -19 -12 -22 -5 -3 10 -53 22 -91 21 -9 0 -15 4 -12 9 3 4 -1
11 -7 14 -7 3 3 2 22 -2 19 -4 119 -7 222 -7z m1239 -4 c85 -29 179 -85 179
-106 0 -7 8 -12 18 -11 9 2 34 -3 56 -10 21 -8 53 -14 71 -14 45 0 96 11 90
20 -2 4 7 5 21 2 17 -3 24 0 22 8 -4 17 65 17 105 1 35 -14 70 -14 62 -1 -3 6
-1 10 4 10 6 0 11 -4 11 -10 0 -13 65 -13 108 -1 17 5 32 6 32 1 0 -5 -12 -11
-27 -14 -77 -14 -113 -16 -163 -6 -46 9 -72 7 -167 -12 -97 -19 -118 -21 -158
-10 -53 14 -203 16 -260 2 -54 -12 -107 -22 -122 -23 -7 0 -13 -3 -13 -7 0 -4
-33 -19 -72 -34 -40 -16 -86 -35 -101 -43 -19 -10 -32 -12 -38 -6 -7 7 2 15
23 23 112 42 139 55 125 58 -33 6 -17 17 28 19 24 1 50 5 56 8 6 4 30 9 53 11
22 2 55 6 71 9 17 3 55 8 85 11 30 3 57 8 59 10 9 8 -34 45 -73 63 -91 42
-153 60 -167 48 -11 -10 -11 -9 0 6 17 21 16 21 82 -2z m-2087 -27 c10 -25 7
-46 -5 -39 -6 4 -8 13 -5 21 4 10 -2 12 -24 7 -35 -7 -40 4 -7 17 31 12 34 12
41 -6z m41 7 c3 -5 1 -12 -5 -16 -5 -3 -10 1 -10 9 0 18 6 21 15 7z m1980 -11
c3 -6 -1 -7 -9 -4 -18 7 -21 14 -7 14 6 0 13 -4 16 -10z m-575 -15 c0 -2 -15
-12 -32 -20 l-33 -16 25 20 c24 20 40 26 40 16z m87 -15 c-14 -11 -29 -20 -34
-20 -5 0 -19 -9 -31 -20 -12 -12 -22 -19 -22 -16 0 3 -12 -6 -27 -20 -14 -13
-28 -22 -30 -20 -3 3 -19 -9 -36 -26 -38 -35 -67 -53 -67 -39 0 16 63 65 148
115 45 26 85 52 88 57 3 5 12 9 21 9 11 0 8 -6 -10 -20z m460 14 c-3 -3 -12
-4 -19 -1 -8 3 -5 6 6 6 11 1 17 -2 13 -5z m950 -31 c-3 -10 -5 -4 -5 12 0 17
2 24 5 18 2 -7 2 -21 0 -30z m-3031 4 c-4 -43 -22 -54 -53 -34 -9 6 -13 0 -13
-22 0 -37 -10 -39 -29 -8 -7 12 -10 19 -6 15 4 -4 18 5 31 20 13 15 23 22 22
16 -3 -12 0 -14 29 -14 15 0 15 2 -1 19 -17 18 -17 19 1 24 10 3 19 5 20 6 1
0 1 -9 -1 -22z m3094 -52 c0 -27 5 -68 10 -90 5 -22 12 -55 15 -74 3 -19 17
-58 30 -88 36 -78 30 -79 -10 -2 -18 36 -41 93 -49 126 -18 68 -22 218 -6 193
5 -8 10 -37 10 -65z m-3050 49 c0 -8 -5 -12 -10 -9 -6 4 -8 11 -5 16 9 14 15
11 15 -7z m181 6 c14 0 11 -24 -6 -46 -8 -10 -15 -14 -14 -9 1 6 0 13 -1 18
-1 4 -3 13 -4 20 -1 6 -8 11 -15 9 -7 -1 -9 2 -6 8 4 6 14 9 22 6 8 -3 19 -6
24 -6z m-151 -47 c0 -21 -3 -24 -9 -14 -5 8 -7 20 -4 28 8 21 13 15 13 -14z
m-23 2 c0 -8 -4 -12 -9 -9 -4 3 -8 9 -8 15 0 5 4 9 8 9 5 0 9 -7 9 -15z m1715
-3 c-7 -2 -12 -10 -12 -18 0 -8 -20 -35 -45 -61 -25 -25 -45 -54 -45 -63 0
-10 -7 -23 -15 -30 -8 -7 -15 -18 -15 -25 0 -6 -12 -24 -27 -38 -86 -82 -76
-91 25 -21 55 39 102 62 102 50 0 -5 -139 -96 -146 -96 -4 0 -35 -21 -71 -46
-35 -25 -66 -44 -69 -42 -4 4 114 148 141 173 6 6 29 36 50 68 22 32 47 63 57
68 10 5 18 14 18 19 0 19 45 78 54 72 6 -3 5 -7 -2 -10z m-1742 -16 c10 -13
10 -17 3 -12 -9 5 -13 1 -14 -11 0 -16 -1 -16 -8 2 -7 16 -3 55 3 43 1 -2 8
-12 16 -22z m-148 7 c-6 -2 -10 -9 -7 -13 3 -5 0 -12 -6 -16 -8 -4 -9 -3 -5 4
4 7 2 12 -4 12 -6 0 -8 5 -5 10 3 6 14 10 23 9 11 0 12 -2 4 -6z m971 -21
c-45 -39 -229 -172 -237 -172 -4 0 -13 -6 -21 -12 -7 -7 -22 -21 -33 -30 -20
-16 -21 -16 -19 2 1 10 12 23 25 29 13 6 20 16 17 21 -4 6 -1 9 7 8 7 -2 12 3
11 10 -2 7 7 12 22 12 14 0 25 5 25 10 0 6 5 10 11 10 6 0 39 20 73 44 136 96
185 125 119 68z m817 24 c0 -2 -7 -7 -16 -10 -8 -3 -12 -2 -9 4 6 10 25 14 25
6z m-290 -20 c0 -2 -7 -7 -16 -10 -8 -3 -12 -2 -9 4 6 10 25 14 25 6z m-1535
-15 c-3 -5 -1 -12 5 -16 13 -8 -10 -45 -29 -45 -10 0 -11 3 -2 13 6 8 8 17 4
20 -3 4 -1 7 5 7 7 0 11 3 11 8 -2 12 1 22 7 22 3 0 3 -4 -1 -9z m1760 -1 c-3
-5 -12 -10 -18 -10 -7 0 -6 4 3 10 19 12 23 12 15 0z m1361 -27 c-15 -13 -24
-28 -21 -33 3 -6 -1 -7 -10 -4 -13 5 -13 9 -3 23 31 41 41 50 50 45 6 -4 -2
-17 -16 -31z m-2046 20 c-1 -11 -112 -94 -118 -89 -5 6 8 19 63 64 39 32 55
39 55 25z m1935 -5 l49 2 -39 -41 c-49 -50 -150 -124 -199 -144 -50 -21 -47
-38 7 -30 130 20 249 66 329 128 l47 36 16 -57 c9 -31 28 -79 42 -107 55 -107
105 -259 110 -333 3 -40 10 -75 14 -78 21 -13 47 109 51 241 1 36 4 65 7 65 3
-1 26 -26 51 -56 55 -68 115 -120 194 -167 69 -42 76 -55 171 -287 69 -170
103 -272 83 -252 -25 25 -25 9 -2 -100 25 -118 30 -184 15 -206 -6 -10 -10 -4
-15 20 -3 19 -13 43 -22 54 -17 21 -17 30 5 -149 8 -61 0 -77 -25 -56 -13 11
-14 9 -10 -12 38 -159 58 -238 81 -314 23 -78 28 -119 37 -300 9 -204 5 -500
-8 -579 -8 -49 9 -41 27 12 6 20 38 91 69 157 32 66 70 165 84 220 36 133 68
192 129 231 27 18 55 41 63 53 19 26 65 51 96 51 143 0 195 -415 102 -815 -20
-89 -55 -185 -123 -333 -85 -188 -173 -337 -253 -427 -75 -86 -168 -110 -233
-61 -43 33 -43 39 -10 228 14 78 25 167 25 198 -1 51 -2 53 -15 36 -8 -11 -15
-31 -15 -45 0 -13 -11 -99 -25 -190 -69 -445 -78 -487 -146 -697 -48 -148 -99
-225 -243 -370 -99 -99 -505 -431 -608 -497 -29 -19 -89 -58 -133 -86 -235
-152 -417 -204 -720 -202 -243 1 -483 40 -608 100 -110 53 -269 241 -327 387
-30 75 -133 283 -154 309 -15 18 -15 17 -2 -20 13 -37 95 -217 117 -258 14
-25 4 -33 -18 -16 -88 68 -213 179 -286 253 -218 222 -323 419 -382 717 -15
74 -40 199 -56 279 -99 485 -106 556 -89 895 12 218 11 256 -6 415 -32 312
-19 1152 21 1315 19 78 18 160 -4 265 -15 74 -15 94 -4 159 7 40 12 76 11 80
-4 14 26 87 41 98 23 16 25 9 7 -24 -18 -36 -46 -180 -46 -239 0 -93 19 -145
76 -204 59 -62 54 -66 78 60 30 168 139 336 299 467 86 70 110 79 78 31 -38
-58 -78 -142 -95 -197 -20 -67 -22 -215 -3 -209 6 3 13 20 15 38 2 21 6 29 11
21 6 -9 27 14 65 69 39 55 78 97 121 128 64 47 406 224 415 215 3 -2 -21 -29
-53 -60 -31 -30 -57 -57 -57 -60 0 -3 -18 -30 -40 -62 -52 -75 -51 -96 3 -44
80 76 249 173 430 246 47 19 106 49 132 67 37 25 45 28 36 12 -6 -11 -24 -31
-40 -45 -17 -14 -27 -27 -24 -30 4 -5 -105 -154 -221 -299 -16 -21 -27 -41
-23 -44 7 -8 200 102 357 203 296 192 507 257 753 234 90 -9 125 -8 177 3 40
9 88 12 125 8 33 -3 82 -5 110 -4z m-1315 -12 c0 -7 -24 -23 -52 -35 -29 -12
-61 -26 -70 -31 -10 -6 -23 -10 -29 -10 -6 0 -42 -19 -80 -41 -38 -23 -72 -39
-75 -36 -3 3 21 24 53 48 32 23 64 47 72 53 12 9 13 8 7 -3 -11 -18 20 -8 94
30 30 15 58 25 62 23 4 -3 8 0 8 5 0 6 2 11 5 11 3 0 5 -6 5 -14z m2524 2 c-3
-4 -9 -8 -15 -8 -5 0 -9 4 -9 8 0 5 7 9 15 9 8 0 12 -4 9 -9z m-4164 -8 c0 -5
-8 -10 -17 -10 -15 0 -16 2 -3 10 19 12 20 12 20 0z m80 0 c0 -5 -6 -10 -14
-10 -8 0 -18 5 -21 10 -3 6 3 10 14 10 12 0 21 -4 21 -10z m1275 -22 c-77 -40
-128 -61 -122 -51 5 8 85 49 137 71 52 22 43 10 -15 -20z m1745 5 c0 -5 -13
-17 -28 -27 l-27 -19 24 26 c26 28 31 32 31 20z m-3210 -29 c0 -8 -5 -12 -10
-9 -6 4 -8 11 -5 16 9 14 15 11 15 -7z m66 7 c-3 -5 1 -12 10 -15 8 -3 12 -2
9 3 -3 5 -2 12 3 15 5 3 9 -2 9 -10 0 -8 -21 -31 -46 -51 -25 -21 -79 -69
-120 -108 -41 -38 -71 -61 -66 -50 4 11 10 31 13 45 6 28 23 58 65 113 32 42
36 43 63 21 10 -8 13 -12 6 -9 -15 8 -54 -29 -91 -85 l-23 -35 34 36 c19 19
40 33 46 31 6 -2 12 7 14 20 2 13 9 22 16 20 7 -1 15 6 19 15 3 10 13 26 21
36 16 18 27 23 18 8z m334 -6 c0 -8 -2 -15 -4 -15 -2 0 -6 7 -10 15 -3 8 -1
15 4 15 6 0 10 -7 10 -15z m-225 -25 c-10 -11 -21 -17 -24 -14 -3 4 0 9 7 11
6 3 10 9 6 14 -3 5 3 9 12 9 16 0 16 -2 -1 -20z m2928 -10 c-18 -21 -82 -54
-90 -46 -3 2 6 10 19 17 12 6 36 23 52 36 34 28 45 24 19 -7z m1197 0 c0 -4
-9 -6 -21 -3 -15 4 -17 8 -8 14 14 8 29 3 29 -11z m-840 -22 c11 -18 28 -58
38 -88 14 -43 32 -69 92 -129 41 -42 78 -76 82 -76 8 0 68 -69 63 -73 -9 -9
-94 62 -149 123 -56 64 -175 275 -155 275 5 0 18 -15 29 -32z m121 22 c1 8 5
-1 9 -20 15 -72 43 -176 51 -192 5 -10 9 -26 9 -35 -1 -26 -27 23 -33 62 -2
17 -12 47 -21 69 -9 21 -16 51 -16 67 0 15 -4 31 -10 34 -5 3 -10 12 -10 18 0
7 4 6 10 -3 9 -13 10 -13 11 0z m486 -12 c-3 -8 -6 -5 -6 6 -1 11 2 17 5 13 3
-3 4 -12 1 -19z m-3961 -45 c-14 -14 -22 -31 -19 -37 4 -5 -1 -7 -11 -3 -9 4
-14 3 -11 -2 3 -5 1 -12 -4 -15 -5 -4 -13 -2 -16 4 -8 12 10 42 51 85 24 25
29 27 32 13 2 -10 -8 -30 -22 -45z m4189 29 c-3 -3 -11 0 -18 7 -9 10 -8 11 6
5 10 -3 15 -9 12 -12z m-870 -44 c30 -66 37 -92 20 -78 -7 6 -16 22 -19 36 -4
14 -16 35 -26 47 -23 24 -25 37 -7 37 7 0 21 -19 32 -42z m-2484 -23 c-17 -25
-31 -50 -31 -54 0 -5 -13 -25 -30 -46 -16 -21 -30 -32 -30 -24 0 17 64 126 93
156 33 36 32 18 -2 -32z m2726 -27 c6 -42 -5 -34 -17 13 -6 22 -13 48 -16 57
-3 9 2 4 11 -12 10 -16 19 -42 22 -58z m-3512 62 c3 -5 1 -10 -4 -10 -6 0 -11
5 -11 10 0 6 2 10 4 10 3 0 8 -4 11 -10z m4145 -25 c0 -12 -19 -12 -23 0 -4 9
-1 12 9 8 7 -3 14 -7 14 -8z m-4146 -18 c2 -10 2 -17 -1 -14 -3 3 -11 0 -18
-6 -9 -8 -10 -16 -3 -24 6 -7 6 -13 1 -13 -5 0 -15 6 -23 13 -12 10 -12 9 0
-6 14 -19 21 -69 8 -61 -4 3 -8 0 -8 -5 0 -6 -5 -11 -11 -11 -5 0 -8 4 -4 9 3
5 1 12 -4 15 -5 4 -7 -8 -5 -26 3 -22 2 -28 -4 -20 -7 11 -11 8 -16 -12 -3
-14 -13 -26 -21 -26 -18 0 -20 21 -2 39 10 11 10 14 0 18 -18 7 -16 33 3 33 8
0 12 5 9 10 -3 6 -1 10 6 10 7 0 10 3 7 6 -8 7 33 49 47 49 6 0 10 10 9 21 0
26 23 27 30 1z m980 8 c-4 -8 -9 -15 -13 -15 -18 0 -165 -105 -225 -159 -23
-22 -34 -28 -28 -16 14 27 127 135 141 135 7 0 23 8 37 17 23 15 86 51 91 52
1 1 0 -6 -3 -14z m-106 -30 c-3 -3 -9 2 -12 12 -6 14 -5 15 5 6 7 -7 10 -15 7
-18z m-999 -41 c-12 -21 -30 -51 -40 -65 -26 -37 -72 -178 -66 -206 2 -13 1
-23 -3 -23 -5 0 -6 -8 -3 -18 2 -10 -2 -24 -11 -31 -12 -10 -14 -8 -11 16 2
15 6 50 9 77 9 77 39 152 104 264 15 27 28 40 34 34 6 -6 1 -24 -13 -48z
m4275 44 c-3 -4 -15 -8 -27 -8 -15 0 -18 3 -9 8 17 11 43 11 36 0z m-3588 -17
c-60 -66 -117 -124 -110 -111 14 25 27 41 74 86 46 45 67 59 36 25z m-526 5
c0 -18 -15 -36 -29 -35 -11 0 -12 2 -3 6 10 4 10 8 1 19 -9 11 -7 14 10 14 11
0 21 -2 21 -4z m4014 -22 c3 -8 2 -12 -4 -9 -6 3 -7 -1 -4 -9 3 -9 2 -16 -4
-16 -6 0 -12 6 -15 13 -3 9 -8 9 -23 -2 -10 -7 -6 -2 9 13 33 31 33 31 41 10z
m63 -1 c-4 -3 -2 -12 4 -19 14 -17 -1 -39 -28 -40 -14 -1 -25 6 -28 17 -8 24
2 40 19 33 8 -3 17 -1 21 5 3 6 9 11 12 11 4 0 3 -3 0 -7z m-526 -121 c5 -2 9
-8 9 -13 0 -4 36 -45 80 -89 92 -91 90 -110 -2 -22 -79 75 -159 194 -158 235
1 7 15 -15 32 -48 17 -33 34 -61 39 -63z m596 99 c-1 -15 -4 -17 -14 -9 -15
12 -17 22 -3 13 6 -3 10 -1 10 4 0 6 2 11 4 11 3 0 4 -9 3 -19z m-3422 -17
c-9 -9 -19 -13 -23 -10 -3 4 0 11 8 16 24 15 33 11 15 -6z m2510 -38 c14 -30
25 -65 25 -78 -1 -13 -14 10 -30 52 -33 83 -32 80 -25 80 3 0 16 -24 30 -54z
m813 -4 c5 2 10 -1 10 -7 0 -5 -4 -9 -9 -8 -4 2 -6 -4 -2 -13 5 -14 3 -15 -17
-4 -18 10 -20 14 -9 21 10 6 7 9 -11 9 -19 0 -22 2 -10 10 9 5 19 5 26 -1 7
-5 16 -8 22 -7z m-4224 -17 c-4 -8 -11 -12 -16 -9 -6 4 -5 10 3 15 19 12 19
11 13 -6z m404 -22 c-13 -46 -16 -259 -4 -293 8 -24 8 -24 -10 -5 -17 16 -19
34 -18 134 0 112 15 201 34 201 4 0 4 -17 -2 -37z m415 2 c-9 -19 -18 -33 -21
-31 -4 5 26 66 33 66 3 0 -3 -16 -12 -35z m3760 -5 c3 -11 1 -20 -4 -20 -5 0
-9 4 -9 9 0 5 -3 17 -7 27 -4 11 -3 15 4 11 6 -4 13 -16 16 -27z m-4035 -49
c-23 -33 -54 -99 -72 -153 -29 -87 -33 -93 -43 -72 -9 20 -8 24 4 24 8 0 11 5
8 10 -3 6 -1 10 5 10 7 0 9 7 6 16 -3 9 -3 21 1 27 4 7 8 14 8 17 2 29 104
180 121 180 2 0 -15 -26 -38 -59z m-540 32 c15 -15 15 -16 1 -11 -9 4 -22 1
-28 -5 -8 -8 -11 -8 -11 1 0 7 5 12 11 12 5 0 7 5 4 10 -10 16 5 12 23 -7z
m272 -3 c0 -5 -4 -10 -10 -10 -5 0 -10 5 -10 10 0 6 5 10 10 10 6 0 10 -4 10
-10z m-315 -52 c-11 -36 -22 -41 -17 -8 2 16 9 30 14 30 5 0 6 -10 3 -22z
m845 7 c11 7 -9 -56 -21 -69 -11 -12 -12 9 -2 55 3 19 8 28 11 21 2 -7 8 -10
12 -7z m-795 -24 c-1 -9 -8 -16 -16 -16 -8 0 -13 -8 -13 -18 1 -9 -1 -17 -5
-17 -17 0 -18 13 -5 39 15 30 43 38 39 12z m44 -15 c-3 -3 -11 5 -18 17 -13
21 -12 21 5 5 10 -10 16 -20 13 -22z m4091 -30 c0 -2 -9 -6 -20 -9 -11 -3 -20
-1 -20 4 0 5 9 9 20 9 11 0 20 -2 20 -4z m-10 -25 c0 -12 -20 -25 -27 -18 -7
7 6 27 18 27 5 0 9 -4 9 -9z m-4073 -27 c0 -7 -6 -10 -14 -7 -7 3 -13 8 -13
12 0 4 6 8 13 8 8 0 14 -6 14 -13z m-116 -25 c-29 -27 -37 -19 -10 10 12 12
24 20 27 17 3 -4 -5 -16 -17 -27z m4207 13 c2 -7 -5 -10 -18 -7 l-21 4 21 -27
c19 -23 16 -37 -6 -32 -4 1 -11 -4 -15 -12 -6 -9 -9 -10 -9 -1 0 23 -49 -6
-50 -29 0 -5 7 -8 15 -8 23 0 18 -16 -5 -17 -11 -1 -20 2 -20 8 0 5 -9 9 -20
9 -13 0 -18 -5 -14 -15 3 -8 11 -13 17 -12 6 1 11 -5 12 -13 0 -14 81 -59 184
-102 22 -10 41 -20 41 -22 0 -18 -230 86 -257 117 -18 20 -118 87 -130 87 -4
0 3 -10 14 -22 28 -32 36 -58 18 -58 -8 0 -15 6 -15 13 0 8 -18 42 -40 75 -22
34 -38 62 -35 62 2 0 25 -13 52 -30 26 -16 59 -30 73 -30 50 -1 102 8 113 19
6 6 17 11 23 11 7 0 16 5 20 12 5 7 2 9 -7 4 -8 -4 -3 2 10 14 25 21 42 22 49
2z m-210 -12 c14 -23 10 -25 -19 -9 -11 5 -17 14 -14 20 9 14 19 11 33 -11z
m-3879 -2 c8 3 12 -1 9 -9 -6 -14 -11 -15 -39 -4 -10 4 -20 -3 -29 -19 -7 -14
-17 -23 -22 -20 -4 3 -8 1 -8 -5 0 -10 19 -26 32 -26 12 0 22 -15 10 -15 -6 0
-9 -7 -5 -17 4 -11 3 -14 -5 -9 -8 5 -12 -5 -12 -33 0 -22 -4 -43 -10 -46 -5
-3 -10 1 -10 9 0 9 -4 16 -10 16 -9 0 -14 -22 -13 -57 0 -6 -5 -14 -12 -17 -9
-3 -11 5 -8 32 6 43 19 72 34 72 6 0 7 -5 3 -12 -4 -7 -3 -8 4 -4 17 10 15 33
-4 40 -8 3 -12 11 -8 17 4 8 9 7 15 -2 4 -7 11 -10 16 -6 8 9 -8 39 -22 41
-12 1 -64 -144 -58 -160 2 -6 -1 -23 -6 -37 -6 -15 -7 -27 -2 -27 5 0 11 -9
14 -20 3 -11 0 -20 -5 -20 -6 0 -5 -6 2 -15 10 -12 10 -15 0 -15 -7 0 -10 -7
-6 -15 3 -8 1 -15 -4 -15 -6 0 -10 6 -10 13 0 6 -5 4 -11 -6 -8 -13 -6 -21 5
-33 19 -18 19 -21 4 -30 -7 -4 -8 -3 -4 4 4 7 2 12 -3 12 -6 0 -11 -6 -11 -14
0 -8 8 -14 19 -13 14 1 18 8 17 28 -1 15 1 26 5 23 10 -6 22 27 20 54 -1 12 2
22 8 22 6 0 11 -8 11 -17 0 -14 2 -15 9 -5 6 10 10 8 14 -8 6 -24 3 -29 -57
-93 -21 -23 -45 -56 -52 -74 -8 -17 -18 -34 -24 -38 -14 -9 -12 39 2 53 10 10
10 15 -1 21 -11 7 -9 29 13 122 14 63 28 136 31 162 8 64 84 213 108 211 9 -1
17 2 17 7 0 6 7 6 18 1 9 -5 23 -7 31 -4z m4116 -8 c3 -5 1 -10 -4 -10 -6 0
-11 5 -11 10 0 6 2 10 4 10 3 0 8 -4 11 -10z m-3988 -42 c-3 -8 -6 -5 -6 6 -1
11 2 17 5 13 3 -3 4 -12 1 -19z m-283 -3 c-4 -8 -8 -15 -10 -15 -2 0 -4 7 -4
15 0 8 4 15 10 15 5 0 7 -7 4 -15z m316 -10 c-7 -9 -15 -13 -18 -10 -3 2 1 11
8 20 7 9 15 13 18 10 3 -2 -1 -11 -8 -20z m-190 5 c0 -5 -4 -10 -10 -10 -5 0
-10 5 -10 10 0 6 5 10 10 10 6 0 10 -4 10 -10z m4627 -42 c-3 -8 -6 -5 -6 6
-1 11 2 17 5 13 3 -3 4 -12 1 -19z m-573 -37 c3 -5 0 -11 -7 -14 -8 -3 -14 1
-14 9 0 16 13 19 21 5z m-114 -33 c0 -6 -6 -5 -15 2 -8 7 -15 14 -15 16 0 2 7
1 15 -2 8 -4 15 -11 15 -16z m-32 -31 c6 -6 13 -24 17 -39 4 -16 12 -25 18
-21 6 3 7 1 3 -6 -4 -6 -2 -27 4 -46 25 -76 2 -52 -32 34 -33 83 -37 111 -10
78z m-3868 -21 c0 -3 -4 -8 -10 -11 -5 -3 -10 -1 -10 4 0 6 5 11 10 11 6 0 10
-2 10 -4z m46 -11 c-10 -8 -23 -12 -28 -9 -14 9 2 24 25 24 21 -1 21 -1 3 -15z
m119 -25 c9 -17 20 -28 24 -25 13 7 19 -17 12 -39 -7 -18 -8 -18 -26 0 -13 14
-20 15 -23 6 -3 -10 -7 -10 -18 -1 -21 17 -17 31 6 24 18 -6 20 -3 16 19 -3
14 -7 30 -11 36 -3 5 -4 10 -1 10 3 0 13 -14 21 -30z m3915 -14 c0 -7 -23 0
-52 14 -16 7 -28 17 -28 22 0 5 18 -1 40 -12 22 -11 40 -22 40 -24z m59 -17
c34 -12 43 -30 12 -24 -23 4 -61 23 -61 30 0 8 15 6 49 -6z m-4092 -41 c-3 -8
-6 -5 -6 6 -1 11 2 17 5 13 3 -3 4 -12 1 -19z m3886 -68 c3 -11 1 -18 -4 -14
-5 3 -9 12 -9 20 0 20 7 17 13 -6z m-3876 -22 c-3 -8 -6 -5 -6 6 -1 11 2 17 5
13 3 -3 4 -12 1 -19z m4490 -15 c-3 -10 -5 -4 -5 12 0 17 2 24 5 18 2 -7 2
-21 0 -30z m-4517 23 c0 -2 -7 -9 -15 -16 -12 -10 -15 -10 -15 4 0 9 7 16 15
16 8 0 15 -2 15 -4z m3975 -140 c8 -27 15 -60 15 -72 0 -13 4 -25 9 -28 11 -7
20 -86 10 -86 -4 0 -14 30 -23 68 -8 37 -25 92 -36 122 -11 30 -20 62 -20 70
1 26 29 -20 45 -74z m-4139 -117 c9 -224 7 -210 26 -207 9 2 17 -1 18 -7 0 -5
-9 -11 -20 -13 -16 -3 -20 -8 -15 -20 4 -9 9 -35 11 -57 2 -22 6 -51 10 -65 3
-17 2 -22 -5 -15 -5 6 -17 48 -26 95 -26 135 -33 471 -10 448 3 -3 8 -74 11
-159z m4103 32 c31 -95 40 -182 21 -211 -7 -11 -10 -1 -9 35 1 52 -7 98 -35
200 -9 33 -19 69 -22 80 -14 53 17 -18 45 -104z m-3799 -126 c-5 -44 -10 -181
-11 -305 -1 -152 -4 -210 -10 -180 -8 46 -12 289 -5 325 2 11 7 58 10 105 7
88 16 144 21 138 2 -2 -1 -39 -5 -83z m-250 -65 c0 -5 -7 -7 -15 -4 -8 4 -15
8 -15 10 0 2 7 4 15 4 8 0 15 -4 15 -10z m4019 -47 c0 -35 -1 -36 -10 -14 -5
14 -7 31 -5 38 10 24 16 13 15 -24z m527 -77 c16 -17 19 -46 4 -46 -5 0 -10 9
-10 20 0 11 -4 20 -10 20 -5 0 -10 5 -10 10 0 14 9 12 26 -4z m-535 -113 c-1
-7 2 -13 6 -13 5 0 9 -8 10 -17 5 -46 16 -82 24 -77 5 3 6 -2 3 -11 -4 -8 0
-22 7 -31 7 -9 14 -33 15 -54 1 -22 7 -54 13 -72 14 -42 19 -117 26 -390 4
-144 2 -219 -5 -223 -7 -4 -10 52 -11 172 0 98 -2 196 -4 218 -3 22 -9 85 -15
140 -5 55 -16 123 -24 150 -7 28 -26 93 -41 145 -35 124 -41 157 -18 110 9
-19 16 -41 14 -47z m-3911 38 c3 -2 -3 -1 -12 2 -9 3 -19 1 -21 -6 -3 -7 -4
-2 -4 10 1 21 7 20 37 -6z m-50 15 c0 -3 -4 -8 -10 -11 -5 -3 -10 -1 -10 4 0
6 5 11 10 11 6 0 10 -2 10 -4z m4507 -38 c-3 -7 -5 -2 -5 12 0 14 2 19 5 13 2
-7 2 -19 0 -25z m-4447 3 c0 -6 -5 -13 -12 -17 -7 -5 -8 -2 -3 7 6 11 5 12 -5
2 -11 -10 -11 -15 0 -28 11 -13 10 -15 -3 -10 -19 8 -18 -26 1 -38 6 -4 12
-15 12 -23 0 -8 4 -13 8 -10 15 9 9 -19 -7 -34 -13 -12 -14 -12 -9 1 3 9 1 16
-6 16 -9 0 -10 -14 -5 -51 4 -28 8 -80 8 -115 1 -97 -18 -63 -30 50 -23 239
-23 247 -3 252 33 8 54 7 54 -2z m3984 -117 c3 -8 2 -12 -4 -9 -6 3 -10 10
-10 16 0 14 7 11 14 -7z m-3940 -72 c3 -23 8 -47 11 -53 4 -5 1 -16 -5 -25
-10 -11 -10 -24 0 -58 7 -25 10 -48 7 -53 -3 -5 0 -27 8 -49 22 -61 17 -85 -7
-34 -17 37 -22 70 -26 185 -4 135 1 176 12 87z m4328 -84 c-6 -6 -7 0 -4 19 5
21 7 23 10 9 2 -10 0 -22 -6 -28z m-4235 -60 c-2 -18 -4 -6 -4 27 0 33 2 48 4
33 2 -15 2 -42 0 -60z m-94 -205 c30 -135 38 -189 35 -238 l-3 -50 -43 67
c-39 59 -74 89 -88 75 -3 -3 6 -17 20 -32 30 -32 40 -85 31 -159 -7 -50 1
-153 10 -144 2 2 9 35 15 73 17 112 17 112 52 78 16 -15 43 -50 59 -78 28 -48
29 -55 29 -180 0 -207 23 -387 83 -655 8 -36 18 -82 21 -102 7 -37 6 -38 -23
-38 -39 0 -93 47 -120 104 -12 23 -48 139 -80 257 -33 118 -73 257 -90 309
-39 124 -61 294 -61 484 0 184 12 256 51 297 27 29 29 30 58 15 25 -13 32 -26
44 -83z m4117 63 c0 -2 -15 -36 -34 -77 -19 -41 -46 -118 -60 -172 -14 -54
-31 -106 -36 -115 -10 -15 -10 -14 -6 3 19 68 28 125 28 160 0 27 5 43 18 52
20 14 46 106 34 124 -4 8 -3 9 4 5 7 -4 12 -1 12 6 0 8 9 14 20 15 11 1 20 0
20 -1z m-4035 -231 c1 -35 -1 -63 -5 -60 -4 2 -8 35 -9 72 -1 37 1 64 5 60 4
-3 8 -36 9 -72z m41 -82 c-3 -32 -5 -74 -5 -93 -1 -34 -1 -34 -17 -12 -10 15
-13 27 -6 35 15 19 21 94 8 108 -8 9 -8 10 2 5 6 -4 12 -2 12 3 0 6 3 11 6 11
3 0 3 -26 0 -57z m3661 -1662 c28 -13 68 -40 87 -60 37 -38 110 -184 170 -341
20 -52 59 -134 87 -182 64 -112 77 -175 60 -308 -20 -148 -92 -414 -202 -738
-106 -312 -132 -390 -224 -692 -31 -102 -62 -191 -67 -197 -20 -24 -55 -13
-139 43 -203 136 -408 323 -611 561 -155 181 -247 223 -381 173 -57 -21 -95
-45 -87 -53 3 -3 37 3 75 14 165 45 210 25 386 -177 l90 -103 -80 -41 c-237
-119 -470 -190 -721 -221 -100 -12 -359 2 -501 26 -156 27 -377 119 -524 218
-74 50 -183 153 -242 230 -43 55 -44 59 -29 81 8 13 43 38 77 55 75 37 134 40
211 11 63 -24 59 -23 51 -5 -7 21 -50 42 -109 55 -40 9 -58 8 -113 -9 -107
-32 -157 -85 -281 -294 -61 -104 -64 -114 -44 -170 69 -196 52 -368 -49 -483
-40 -46 -42 -47 -48 -23 -4 13 -7 46 -8 72 -1 57 -15 87 -40 87 -28 0 -42 -23
-48 -84 -3 -34 -11 -56 -18 -56 -24 0 -93 75 -104 115 -22 76 -25 168 -7 203
23 44 21 44 -21 6 -20 -19 -41 -34 -45 -34 -19 0 -1 103 62 350 10 41 31 134
45 205 14 72 34 171 45 220 11 50 31 150 46 224 14 74 43 194 64 265 21 72 51
178 65 236 28 112 93 282 106 278 4 -2 45 -38 92 -80 l84 -77 7 -73 c8 -86 70
-397 97 -483 16 -51 18 -78 5 -64 -18 19 -71 125 -111 221 -51 125 -81 179
-69 123 11 -52 82 -233 115 -295 35 -66 78 -119 228 -282 108 -118 154 -182
260 -359 34 -58 85 -132 113 -165 83 -97 220 -206 238 -187 3 3 -17 24 -45 46
-110 90 -219 213 -269 303 -101 182 -159 260 -331 442 -79 85 -96 108 -91 126
3 13 -14 108 -39 212 -44 188 -78 394 -65 394 10 0 41 -37 92 -110 70 -99 156
-189 222 -232 98 -63 280 -107 535 -129 207 -17 354 -1 577 64 131 39 377 192
641 402 299 237 481 413 574 555 15 22 16 12 23 -165 3 -104 9 -205 12 -224 5
-30 0 -44 -28 -83 -185 -259 -441 -523 -632 -653 -65 -44 -159 -109 -209 -144
-102 -71 -267 -174 -340 -211 -26 -14 -76 -46 -110 -71 -54 -40 -74 -65 -157
-199 -117 -190 -149 -231 -234 -300 -66 -54 -73 -73 -16 -50 60 25 171 158
267 321 105 177 119 190 327 309 120 69 400 258 551 371 271 203 565 551 707
836 46 92 51 109 54 180 2 43 1 69 -2 58 -28 -115 -115 -322 -143 -339 -14 -9
-26 397 -13 474 12 76 30 128 40 115 4 -6 30 -21 59 -34z m-3162 -2801 c12
-13 13 -23 6 -41 -8 -20 -15 -14 -13 11 1 15 -43 7 -62 -11 -19 -19 -20 -21
-4 -30 13 -7 16 -22 14 -69 -2 -51 0 -60 14 -60 13 0 19 12 23 45 4 24 4 51 1
58 -3 8 2 17 10 20 13 5 16 -1 16 -32 0 -21 -3 -59 -6 -85 l-7 -46 -36 6 c-20
4 -39 9 -42 13 -4 3 -9 54 -12 113 l-6 108 26 14 c30 15 55 11 78 -14z m440
-264 c76 -45 146 -158 171 -275 23 -109 18 -301 -10 -413 -53 -211 -112 -277
-260 -294 -73 -9 -126 9 -185 62 -62 55 -84 91 -113 180 -19 59 -22 89 -22
209 2 268 75 463 202 538 41 25 55 28 109 24 44 -3 76 -13 108 -31z m-476 -19
c18 -15 10 -142 -11 -183 -8 -16 -36 -67 -61 -114 -83 -153 -133 -342 -143
-537 l-7 -123 -83 0 c-46 0 -86 4 -89 10 -3 5 -1 55 5 110 13 131 75 346 145
504 30 68 56 134 57 147 3 24 3 24 -118 27 -119 3 -122 2 -128 -20 -3 -13 -6
-33 -6 -45 0 -21 -5 -23 -59 -23 -74 0 -76 3 -66 151 l7 108 112 3 c191 5 430
-3 445 -15z m-51 -489 c2 -40 6 -77 11 -82 4 -6 6 -29 3 -51 -2 -22 -5 -98 -6
-170 -3 -112 -1 -131 13 -136 9 -4 24 -2 34 3 12 6 17 5 17 -6 0 -20 -48 -32
-69 -19 -14 9 -16 43 -19 249 -2 206 1 284 11 284 1 0 3 -32 5 -72z m49 -45
c-3 -10 -5 -4 -5 12 0 17 2 24 5 18 2 -7 2 -21 0 -30z m-1 -101 c-13 -12 -17
8 -10 40 l9 33 3 -33 c2 -19 1 -36 -2 -40z m3470 -128 c235 -23 406 -71 445
-124 17 -23 17 -30 5 -90 -8 -36 -18 -85 -23 -110 l-8 -44 -60 -13 c-33 -8
-105 -25 -160 -39 -106 -26 -205 -45 -375 -70 -191 -28 -316 -72 -372 -131
-82 -86 -76 -226 13 -310 78 -73 178 -87 479 -68 124 8 228 15 233 15 4 0 7
-4 7 -10 0 -21 -94 -29 -465 -39 -411 -10 -473 -17 -535 -61 -37 -26 -42 -26
-103 15 -135 91 -211 201 -290 420 -96 267 -138 486 -103 539 19 29 123 65
261 91 223 42 768 57 1051 29z m-3566 -48 c0 -17 -27 -29 -35 -16 -8 13 -33 1
-38 -18 -3 -10 -5 -2 -6 16 -1 31 0 32 39 32 28 0 40 -4 40 -14z m-332 -28
c-2 -12 -10 -23 -18 -25 -12 -4 -13 -3 -1 5 22 16 -22 25 -66 13 -21 -6 -51
-12 -68 -15 -77 -12 -141 -20 -147 -18 -4 1 -18 -2 -30 -7 -43 -15 -84 -23
-68 -11 9 6 10 10 3 10 -7 0 -16 -6 -20 -12 -4 -7 -15 -14 -23 -15 -136 -15
-233 -77 -245 -157 -20 -128 -24 -231 -13 -276 16 -60 69 -109 104 -96 8 3 16
1 19 -4 10 -15 53 -12 88 7 70 37 144 63 182 63 43 0 114 -39 141 -78 17 -24
106 -86 144 -100 14 -5 59 -8 100 -7 69 2 83 6 175 54 55 29 115 62 134 72 30
18 40 19 90 9 89 -18 151 -43 254 -104 26 -15 53 -26 60 -23 6 2 21 1 32 -3
11 -4 30 -3 43 1 17 7 21 6 16 -4 -6 -9 -4 -9 8 1 20 16 58 24 58 12 0 -19
-41 -30 -107 -30 -63 0 -73 3 -149 48 -95 57 -157 77 -234 76 -46 -1 -74 -11
-170 -58 -154 -76 -211 -93 -270 -77 -63 17 -142 64 -183 111 -20 21 -46 45
-59 53 -56 36 -141 26 -245 -26 -64 -33 -115 -34 -168 -4 -61 35 -88 81 -82
142 3 28 2 58 -2 69 -8 21 5 157 19 202 32 95 193 159 520 204 177 25 182 25
178 -2z m1277 -24 c99 -20 286 -87 340 -123 67 -44 85 -82 85 -172 0 -76 -17
-225 -27 -242 -3 -5 -13 -1 -22 7 -9 9 -28 18 -42 20 -13 2 -28 6 -34 7 -5 1
10 5 34 8 57 8 70 28 48 72 -9 19 -12 38 -7 44 4 5 11 46 15 90 6 72 5 83 -14
107 -28 35 -150 93 -164 79 -8 -8 -6 -11 6 -11 9 0 17 -5 17 -10 0 -7 -6 -7
-20 0 -11 6 -20 8 -20 5 0 -12 5 -20 13 -17 4 1 7 -2 7 -8 0 -5 -11 -10 -23
-10 -26 0 -62 32 -50 44 4 4 0 4 -9 1 -9 -4 -18 0 -21 8 -4 10 1 13 19 9 15
-3 24 -11 24 -23 0 -17 3 -17 20 -7 29 19 31 33 2 35 -13 0 -27 5 -31 11 -3 5
-37 19 -76 30 -74 22 -153 37 -143 26 10 -9 -15 -32 -29 -27 -7 3 -10 -3 -9
-14 3 -18 -10 -33 -29 -33 -5 0 -4 5 3 12 15 15 16 32 2 23 -5 -3 -10 -1 -10
5 0 7 -6 10 -14 7 -16 -6 -30 19 -19 35 4 8 -4 9 -25 5 -35 -7 -35 -7 -25 18
5 15 16 16 77 11 39 -4 107 -14 151 -22z m-1341 -2 c3 -5 -1 -9 -9 -9 -8 0
-12 4 -9 9 3 4 7 8 9 8 2 0 6 -4 9 -8z m1396 -85 c0 -7 -8 -13 -19 -13 -11 0
-17 5 -14 13 3 7 11 13 19 13 8 0 14 -6 14 -13z m25 -38 c-4 -5 -1 -9 4 -9 6
0 11 -4 11 -9 0 -5 -7 -8 -16 -7 -9 0 -18 -7 -19 -16 -2 -10 2 -18 8 -18 5 0
8 -2 5 -5 -14 -14 -54 7 -55 28 0 12 1 16 4 10 3 -7 9 -13 14 -13 4 0 7 6 5
13 -1 6 -1 9 1 4 3 -4 9 -4 14 -1 6 4 6 10 0 18 -7 8 -4 12 10 13 11 1 17 -2
14 -8z m-1089 -18 c-4 -5 -30 -12 -59 -16 -28 -4 -58 -12 -66 -19 -12 -9 -13
-8 -7 2 7 11 -1 13 -39 8 -35 -5 -46 -4 -43 6 3 8 25 12 66 11 34 0 65 3 68 8
3 5 23 9 45 9 22 0 38 -4 35 -9z m148 3 c9 -3 16 -10 16 -16 0 -5 -5 -6 -11
-3 -6 4 -35 8 -65 10 -31 2 -58 6 -61 9 -8 8 101 8 121 0z m806 -2 c0 -4 -9
-8 -19 -8 -11 0 -17 4 -15 8 3 4 12 8 20 8 8 0 14 -4 14 -8z m54 -16 c-3 -9
-10 -13 -15 -10 -5 3 -3 11 4 19 15 16 19 13 11 -9z m125 0 c9 -11 9 -16 -1
-22 -7 -4 -10 -4 -6 1 4 4 3 14 -3 22 -6 7 -9 13 -6 13 2 0 10 -6 16 -14z
m-1164 -28 c6 -4 2 -8 -7 -8 -10 0 -18 7 -18 17 0 9 3 12 8 7 4 -5 12 -12 17
-16z m940 -18 c-3 -5 -14 -6 -26 -3 -15 4 -17 8 -8 13 15 10 41 1 34 -10z
m284 -21 c-10 -6 -6 -9 13 -9 15 0 30 5 33 10 3 6 15 10 27 10 65 0 -89 -79
-213 -109 -102 -25 -351 -54 -359 -42 -3 5 -18 7 -33 6 -24 -3 -26 -1 -16 11
10 12 14 12 20 2 5 -7 9 -8 9 -3 0 6 24 11 53 13 28 1 54 7 55 12 2 6 10 10
18 10 9 0 12 -5 8 -12 -6 -10 -4 -10 7 0 16 14 33 16 24 2 -14 -23 154 -2 225
27 8 3 18 7 22 7 3 1 9 4 12 9 3 4 3 5 0 2 -4 -2 -19 2 -35 10 -33 18 -39 18
-39 5 0 -5 9 -10 20 -10 34 0 22 -18 -15 -22 -27 -3 -32 -1 -23 9 8 10 6 13
-8 14 -11 1 -22 1 -26 0 -5 0 -8 4 -8 9 0 6 9 11 20 11 37 3 41 4 49 18 5 8
16 11 25 8 8 -3 19 -1 23 6 11 17 53 18 46 1 -3 -8 1 -14 11 -14 10 0 13 6 10
15 -5 11 -2 13 12 8 12 -4 15 -3 9 6 -6 10 -3 11 15 1 18 -10 20 -14 9 -21z
m-514 -9 c10 -11 23 -17 29 -13 7 4 7 2 -1 -7 -7 -8 -22 -10 -42 -5 -33 7 -43
25 -13 25 14 0 15 2 2 10 -8 5 -10 10 -4 10 6 0 19 -9 29 -20z m-1407 -19 c9
-5 33 -12 53 -15 20 -3 49 -10 63 -16 15 -5 32 -8 37 -4 5 3 9 0 9 -6 0 -19
-107 5 -187 41 -24 10 -43 21 -43 24 0 5 41 -9 68 -24z m677 9 c3 -5 1 -10 -4
-10 -6 0 -11 5 -11 10 0 6 2 10 4 10 3 0 8 -4 11 -10z m35 1 c0 -6 -4 -12 -8
-15 -5 -3 -9 1 -9 9 0 8 4 15 9 15 4 0 8 -4 8 -9z m590 -1 c13 -8 13 -10 -2
-10 -9 0 -20 5 -23 10 -8 13 5 13 25 0z m45 -8 c-3 -3 -11 0 -18 7 -9 10 -8
11 6 5 10 -3 15 -9 12 -12z m285 8 c-8 -5 -26 -9 -40 -9 -23 0 -23 1 -5 9 11
5 29 9 40 9 17 1 17 -1 5 -9z m438 -9 c-8 -21 -105 -84 -154 -100 -45 -14 -52
-19 -42 -30 11 -11 9 -11 -11 -1 -15 8 -21 8 -17 1 4 -7 -1 -11 -13 -11 -11 0
-25 -8 -30 -17 -10 -17 -10 -16 -11 2 -1 11 -4 14 -7 8 -6 -15 -33 -17 -33 -3
0 5 -6 7 -12 5 -7 -2 -26 -7 -42 -9 -16 -3 -31 -7 -34 -10 -2 -3 -13 -1 -24 5
-11 6 -27 7 -36 3 -36 -16 -152 -26 -152 -12 0 4 6 8 13 9 6 0 21 2 32 4 11 2
54 6 95 9 41 3 100 12 130 20 188 50 236 66 284 100 51 36 71 44 64 27z m-545
-8 c-7 -2 -21 -2 -30 0 -10 3 -4 5 12 5 17 0 24 -2 18 -5z m-226 -19 c-3 -3
-12 -4 -19 -1 -8 3 -5 6 6 6 11 1 17 -2 13 -5z m131 -1 c-10 -2 -26 -2 -35 0
-10 3 -2 5 17 5 19 0 27 -2 18 -5z m177 -3 c-16 -4 -39 -8 -50 -8 l-20 -1 20
9 c11 5 34 8 50 8 l30 0 -30 -8z m-711 -18 c2 -4 -6 -9 -20 -10 -13 -1 -24 3
-24 8 0 12 37 14 44 2z m74 -4 c-6 -18 -22 -20 -43 -3 -19 14 -18 14 13 15 22
0 32 -4 30 -12z m331 -19 c-12 -8 -12 -11 1 -19 12 -7 11 -9 -5 -9 -11 1 -41
-2 -68 -6 -32 -5 -52 -3 -62 5 -24 20 -8 30 40 26 25 -2 45 1 45 5 0 5 11 9
25 9 14 0 25 6 26 13 0 8 2 8 6 -2 3 -7 -1 -17 -8 -22z m366 21 c-3 -5 -13
-10 -21 -10 -8 0 -14 5 -14 10 0 6 9 10 21 10 11 0 17 -4 14 -10z m-1585 -30
c30 -4 46 -8 35 -9 -11 -2 -28 -4 -37 -6 -17 -3 -98 21 -108 32 -3 3 9 2 25
-2 17 -5 55 -12 85 -15z m177 14 c-3 -3 -12 -4 -19 -1 -8 3 -5 6 6 6 11 1 17
-2 13 -5z m1360 0 c-3 -3 -12 -4 -19 -1 -8 3 -5 6 6 6 11 1 17 -2 13 -5z
m-1082 -20 c114 -14 224 -21 280 -17 75 5 66 5 153 0 60 -3 72 -1 72 12 0 12
3 12 12 3 7 -7 26 -12 42 -12 17 0 37 -4 45 -9 43 -27 -371 -24 -597 5 -62 8
-120 14 -128 14 -8 0 -12 5 -9 11 4 6 23 8 44 5 20 -3 59 -8 86 -12z m805 -4
c0 -5 -5 -10 -11 -10 -5 0 -7 5 -4 10 3 6 8 10 11 10 2 0 4 -4 4 -10z m-522
-67 c154 -4 268 -10 260 -14 -10 -7 -10 -9 0 -9 6 0 12 -4 12 -9 0 -12 -54
-11 -61 1 -8 12 -229 20 -229 9 0 -4 -16 -8 -35 -8 -21 0 -32 4 -28 11 4 7 1
7 -6 0 -9 -8 -24 -9 -44 -4 -18 5 -59 11 -93 15 -33 4 -67 11 -75 17 -11 7 -9
8 6 3 11 -4 143 -10 293 -12z m502 -9 c0 -2 -8 0 -19 5 -10 6 -22 7 -26 3 -3
-4 -16 -7 -28 -8 -12 0 -37 -4 -56 -8 -26 -6 -32 -5 -26 5 6 9 3 11 -8 6 -9
-3 -19 -2 -22 3 -7 11 144 18 168 7 9 -4 17 -10 17 -13z m23 9 c-3 -7 -6 -13
-8 -13 -2 0 -5 6 -8 13 -3 8 1 14 8 14 7 0 11 -6 8 -14z m18 -6 c-10 -9 -11
-8 -5 6 3 10 9 15 12 12 3 -3 0 -11 -7 -18z m46 17 c-3 -3 -12 -4 -19 -1 -8 3
-5 6 6 6 11 1 17 -2 13 -5z m693 -4 c0 -5 -4 -10 -9 -10 -6 0 -13 5 -16 10 -3
6 1 10 9 10 9 0 16 -4 16 -10z m-100 -20 c-8 -5 -26 -9 -40 -9 -23 1 -23 2 5
9 43 11 52 11 35 0z m-1170 -20 c0 -5 -5 -10 -11 -10 -5 0 -7 5 -4 10 3 6 8
10 11 10 2 0 4 -4 4 -10z m1135 -20 c3 -5 1 -10 -4 -10 -6 0 -11 5 -11 10 0 6
2 10 4 10 3 0 8 -4 11 -10z m-941 -25 c-5 -12 -10 -13 -20 -4 -19 15 -18 19 6
19 13 0 18 -5 14 -15z m616 -27 c0 -19 -2 -20 -10 -8 -8 12 -10 12 -10 1 0 -8
-3 -11 -6 -8 -6 6 13 37 22 37 2 0 4 -10 4 -22z m336 -36 c-50 -65 -115 -127
-123 -118 -4 3 19 32 50 63 31 32 57 63 57 70 0 7 5 13 10 13 6 0 10 6 10 13
0 7 9 13 20 14 17 2 13 -7 -24 -55z m1124 45 c0 -24 79 -217 115 -283 21 -38
57 -88 79 -112 l41 -45 -35 8 c-85 18 -219 119 -251 189 -30 67 -19 193 22
243 14 16 29 17 29 0z m-1396 -21 c-21 -15 -30 -14 -19 3 3 6 14 11 23 11 13
0 13 -2 -4 -14z m-854 -16 c0 -5 -5 -10 -11 -10 -5 0 -7 5 -4 10 3 6 8 10 11
10 2 0 4 -4 4 -10z m-39 -23 c-7 -7 -14 -8 -21 -1 -6 6 -2 10 12 11 16 2 18
-1 9 -10z m820 -7 c6 0 7 5 3 11 -4 7 1 7 16 -1 12 -6 31 -10 41 -7 10 3 17 2
14 -3 -6 -9 71 -81 79 -73 3 4 6 1 6 -6 0 -8 6 -11 16 -7 10 4 13 2 8 -6 -5
-8 -1 -9 12 -4 14 5 16 4 8 -4 -16 -16 -70 9 -113 51 -31 31 -39 34 -96 34
-35 0 -61 3 -58 8 2 4 13 7 24 7 10 0 19 6 20 13 0 10 2 10 6 0 2 -7 9 -13 14
-13z m458 -1 l34 -20 -7 -242 c-9 -296 -22 -484 -35 -520 -13 -35 -51 -57
-181 -108 -176 -69 -315 -97 -605 -120 -163 -13 -575 -7 -705 11 -41 5 -118
14 -170 20 -266 29 -554 124 -612 202 -16 21 -18 57 -18 368 0 190 -1 349 0
353 0 10 60 -25 60 -35 0 -4 -8 -5 -17 -2 -14 5 -15 4 -4 -4 8 -6 19 -8 25 -6
7 3 12 -6 13 -18 0 -13 -1 -17 -4 -11 -3 10 -8 9 -20 -2 -8 -8 -19 -12 -25 -9
-7 4 -8 2 -4 -4 4 -7 16 -12 27 -12 11 0 30 -5 41 -11 25 -14 96 -22 110 -13
15 10 -12 24 -47 24 -23 0 -27 3 -15 10 20 13 63 13 55 0 -3 -6 -1 -10 4 -10
6 0 11 9 11 21 0 19 1 19 16 4 12 -12 24 -14 43 -9 65 19 230 0 256 -30 10
-11 51 -36 59 -36 2 0 3 8 1 18 -1 11 -10 16 -24 15 -13 -2 -20 1 -16 7 3 6 0
10 -7 10 -7 0 -24 15 -37 33 -13 17 -42 47 -65 65 -43 36 -68 38 -161 14 -22
-6 -41 -9 -43 -7 -8 8 58 34 102 40 62 9 93 -5 136 -60 42 -53 130 -99 223
-116 63 -12 69 -11 144 16 43 16 102 43 132 61 30 18 58 31 63 28 5 -3 16 0
25 8 10 8 44 13 97 13 80 0 82 -1 181 -56 102 -58 215 -93 223 -70 2 6 10 11
18 11 21 0 66 24 153 81 81 54 115 60 151 29 13 -11 19 -20 15 -20 -5 0 -16 7
-25 15 -13 12 -21 12 -50 2 -51 -19 -130 -68 -162 -101 -17 -17 -26 -21 -22
-11 7 17 6 17 -19 0 -15 -9 -27 -21 -27 -25 0 -20 -174 18 -216 47 -38 25 -59
30 -49 11 4 -7 1 -6 -7 2 -7 8 -28 23 -46 33 -29 17 -36 15 -33 -5 0 -4 -6 -5
-15 -1 -8 3 -13 12 -10 20 3 8 2 11 -3 8 -5 -3 -12 -2 -15 3 -21 34 -256 -37
-256 -78 0 -11 81 18 91 33 4 5 9 4 14 -2 3 -7 15 -9 25 -6 9 3 34 6 54 7 25
1 34 4 26 12 -12 12 -13 29 -1 22 5 -4 11 -2 13 4 1 5 16 -1 32 -15 16 -14 34
-25 40 -25 6 0 20 -10 31 -23 11 -12 32 -30 47 -39 22 -15 28 -15 38 -3 6 7
17 12 23 10 7 -2 33 -9 60 -15 26 -7 47 -17 47 -22 0 -5 -5 -6 -12 -2 -7 4 -8
3 -4 -5 6 -9 11 -9 23 0 11 10 19 10 33 1 13 -8 21 -8 25 -2 4 6 12 10 18 8
19 -3 117 25 117 34 0 4 3 7 8 7 24 -4 52 2 47 11 -4 6 7 11 24 11 17 1 37 2
44 3 6 1 18 -3 26 -8 12 -9 13 -8 6 4 -8 13 -6 13 8 1 9 -7 24 -11 32 -7 9 3
13 2 10 -4 -3 -6 2 -10 12 -11 10 0 27 -2 38 -4 96 -15 145 -16 181 -4 21 7
44 14 49 14 6 1 9 6 8 13 -2 6 4 9 12 6 8 -4 15 -1 15 5 0 8 5 8 18 0 15 -9
26 -7 55 12 20 13 37 27 37 32 0 4 -11 1 -24 -8 -20 -14 -26 -14 -51 -1 -23
12 -26 16 -13 21 9 4 26 1 38 -5 15 -8 20 -8 16 -1 -4 6 -1 11 8 11 8 0 14 8
14 18 0 9 2 24 6 33 5 11 -2 24 -21 39 l-28 22 -33 -37 c-19 -20 -30 -41 -26
-48 4 -7 3 -9 -1 -5 -5 5 -22 -7 -39 -25 -37 -40 -79 -67 -104 -67 -10 0 -24
-6 -31 -12 -10 -10 -15 -10 -18 -2 -2 7 -13 10 -23 7 -14 -4 -20 0 -20 11 0 9
-5 16 -11 16 -5 0 -7 -6 -3 -12 4 -7 5 -11 1 -8 -3 3 -5 8 -4 12 1 3 -9 18
-22 32 -14 14 -21 26 -16 26 4 0 15 -8 24 -18 23 -27 51 -39 97 -41 35 -1 47
4 87 39 25 22 62 63 82 90 41 56 55 59 104 29z m-4 -39 c3 -5 1 -10 -4 -10 -6
0 -11 5 -11 10 0 6 2 10 4 10 3 0 8 -4 11 -10z m-575 -9 c0 -5 -7 -12 -16 -15
-14 -5 -15 -4 -4 9 14 17 20 19 20 6z m-65 -48 c-25 -18 -31 -9 -8 14 10 10
20 15 22 9 2 -5 -4 -15 -14 -23z m-1492 -10 c-7 -2 -21 -2 -30 0 -10 3 -4 5
12 5 17 0 24 -2 18 -5z m1999 -40 c-6 -2 -9 -10 -6 -15 5 -7 2 -8 -6 -3 -7 4
-16 2 -21 -6 -6 -9 -9 -10 -9 -2 0 13 28 33 45 32 6 0 4 -3 -3 -6z m-462 -23
c0 -5 -7 -10 -16 -10 -8 0 -12 5 -9 10 3 6 10 10 16 10 5 0 9 -4 9 -10z
m-1740 -58 c0 -22 -5 -28 -26 -30 l-25 -2 23 29 c13 17 24 30 26 30 1 1 2 -12
2 -27z m6 -274 c-7 -234 -1 -276 45 -319 92 -86 346 -161 686 -203 176 -22
256 -27 475 -27 497 -2 774 41 1024 162 140 66 140 67 150 342 5 170 9 210 21
214 18 7 189 -27 336 -68 190 -52 369 -156 412 -240 21 -40 19 -105 -5 -155
-67 -138 -421 -342 -725 -418 -167 -41 -378 -76 -550 -90 -104 -9 -219 -19
-255 -23 -36 -3 -227 -5 -425 -4 -767 4 -1189 83 -1670 311 -233 111 -335 218
-335 353 0 34 8 47 62 104 105 109 254 171 596 247 81 18 151 31 156 28 5 -3
6 -95 2 -214z m2544 -733 c0 -24 -39 -134 -58 -164 -9 -14 -31 -45 -49 -67
-19 -23 -56 -97 -83 -165 -62 -154 -125 -249 -194 -293 -28 -18 -63 -46 -79
-61 -45 -45 -40 -23 6 31 60 68 99 128 151 228 24 47 81 141 126 208 76 114
81 126 75 162 -8 52 -22 76 -45 76 -24 0 -24 0 -5 -36 27 -52 24 -63 -57 -183
-46 -67 -49 -69 -77 -61 -72 20 -101 52 -101 110 0 39 6 53 35 87 47 55 88 79
165 97 36 8 88 21 115 29 65 20 75 20 75 2z m-2495 -25 c8 0 30 -14 49 -31 19
-17 52 -39 73 -49 35 -18 36 -19 12 -20 -60 -1 -91 12 -101 42 -6 17 -20 31
-34 34 -13 3 -29 13 -36 22 -11 13 -10 15 5 9 10 -4 25 -7 32 -7z m315 -54
c91 -14 221 -30 289 -36 69 -6 127 -12 129 -15 2 -2 -9 -7 -24 -10 -16 -3 -45
-10 -65 -15 -49 -13 -178 -13 -236 1 -27 6 -71 22 -98 35 -28 13 -61 24 -75
24 -25 0 -110 34 -110 44 0 3 6 3 13 1 6 -3 86 -16 177 -29z m1808 -16 c-27
-23 -11 -19 -258 -64 -107 -19 -244 -38 -305 -41 l-110 -5 -29 35 c-16 20 -27
37 -25 40 2 2 101 8 219 14 208 11 505 42 518 56 4 3 8 1 10 -5 2 -5 -7 -19
-20 -30z"/>
<path d="M6020 10920 c0 -5 -1 -13 -2 -17 -2 -3 5 -7 14 -9 15 -2 16 1 8 17
-12 21 -20 25 -20 9z"/>
<path d="M5995 10770 c-3 -5 -1 -10 4 -10 6 0 11 5 11 10 0 6 -2 10 -4 10 -3
0 -8 -4 -11 -10z"/>
<path d="M6095 10680 c10 -19 20 -30 22 -23 3 7 -5 23 -17 35 l-22 23 17 -35z"/>
<path d="M4290 9523 c-61 -10 -159 -47 -186 -69 -21 -18 -23 -22 -7 -14 54 26
216 61 311 67 56 3 102 10 102 15 0 8 -172 9 -220 1z"/>
<path d="M4518 9305 c-37 -7 -88 -23 -114 -34 -34 -15 -43 -17 -34 -6 27 33
-61 2 -118 -42 -35 -27 -112 -136 -112 -160 0 -28 22 -10 74 60 29 40 73 86
97 101 l44 29 -46 -50 c-26 -27 -54 -64 -63 -82 -15 -28 -15 -32 -1 -37 8 -4
21 -1 28 5 8 6 30 10 50 9 39 -1 42 -6 11 -13 -126 -30 -189 -54 -176 -67 6
-6 67 1 153 17 211 39 377 44 553 15 230 -36 318 -70 429 -165 36 -30 69 -55
72 -55 4 0 4 12 1 26 -6 22 -4 25 14 19 70 -22 -46 184 -167 296 -69 63 -97
78 -218 114 -78 23 -112 27 -250 31 -112 2 -180 -1 -227 -11z m341 -30 c103
-4 168 -32 241 -105 94 -94 200 -216 225 -258 4 -8 -21 8 -56 33 -109 80 -167
104 -310 127 -123 20 -144 28 -117 44 7 4 8 3 4 -4 -5 -8 6 -12 36 -13 24 0
51 -2 61 -4 9 -2 17 3 17 11 0 8 5 14 11 14 6 0 9 -6 6 -13 -6 -15 35 -33 101
-43 23 -4 42 -11 42 -16 0 -6 9 -8 19 -5 11 3 29 -2 41 -10 31 -22 33 -11 3
22 -16 19 -27 26 -30 18 -3 -7 -9 -13 -15 -13 -7 0 -7 5 1 13 8 11 6 18 -9 32
-11 10 -20 13 -20 7 0 -7 -6 -12 -13 -12 -20 0 -58 30 -51 41 4 6 15 1 27 -12
14 -15 22 -18 25 -10 2 7 -15 33 -39 57 -32 33 -49 43 -64 38 -16 -4 -17 -3
-5 5 13 9 12 11 -6 11 -11 0 -24 3 -28 7 -10 10 -51 14 -181 18 -60 1 -131 3
-157 4 -90 2 -48 18 53 19 56 1 104 4 107 7 3 2 9 2 15 -2 6 -4 36 -7 66 -8z
m-299 -8 c0 -13 -72 -37 -109 -37 -10 0 -26 -11 -35 -25 -18 -27 -123 -101
-132 -93 -3 3 9 16 26 29 17 13 44 36 61 51 47 44 75 59 131 73 29 7 54 13 56
14 1 1 2 -5 2 -12z m208 -35 c15 12 16 11 3 -4 -7 -10 -22 -18 -33 -18 -16 0
-17 2 -6 14 7 8 15 10 16 5 2 -6 11 -4 20 3z m261 -55 c12 -15 12 -17 -3 -11
-9 3 -16 13 -16 22 0 8 1 13 3 11 1 -2 9 -12 16 -22z m126 13 c3 -5 1 -10 -4
-10 -6 0 -11 5 -11 10 0 6 2 10 4 10 3 0 8 -4 11 -10z m-155 -46 c0 -8 -6 -11
-15 -8 -8 4 -15 9 -15 13 0 4 7 8 15 8 8 0 15 -6 15 -13z m225 -31 l18 -28
-21 19 c-12 11 -22 23 -22 28 0 14 7 9 25 -19z m-408 -7 c4 -3 -17 -6 -45 -6
-29 0 -52 3 -52 8 0 8 88 7 97 -2z m130 8 c-3 -3 -12 -4 -19 -1 -8 3 -5 6 6 6
11 1 17 -2 13 -5z m-449 -11 c-10 -2 -26 -2 -35 0 -10 3 -2 5 17 5 19 0 27 -2
18 -5z m623 -26 c-13 -13 -26 -3 -16 12 3 6 11 8 17 5 6 -4 6 -10 -1 -17z
m199 -81 c0 -13 -32 22 -54 59 -15 25 -12 24 18 -9 20 -22 36 -44 36 -50z m30
-47 c15 -28 5 -23 -15 7 -9 15 -12 23 -6 20 6 -4 16 -16 21 -27z"/>
<path d="M2645 9269 c-108 -11 -130 -18 -263 -81 -88 -42 -108 -56 -148 -106
-57 -70 -127 -212 -122 -244 3 -19 8 -14 30 32 14 30 33 64 43 75 16 19 16 19
11 -10 -3 -16 -9 -51 -12 -77 -7 -48 -7 -48 23 -48 20 0 49 15 89 46 76 61
177 107 299 139 90 23 112 25 319 24 121 0 248 -4 281 -8 33 -5 66 -6 73 -3
19 7 15 38 -14 97 -31 67 -102 130 -169 151 -61 19 -311 27 -440 13z m225 -39
c0 -15 -27 -23 -47 -14 -10 4 -22 6 -28 5 -11 -3 -65 -4 -105 -1 -23 1 -23 2
-5 10 29 13 185 12 185 0z m-223 -6 c-3 -3 -12 -4 -19 -1 -8 3 -5 6 6 6 11 1
17 -2 13 -5z m-77 -16 c-14 -6 -31 -10 -38 -9 -7 1 -15 -5 -18 -13 -3 -9 -10
-13 -15 -10 -23 14 26 43 71 43 l25 0 -25 -11z m591 -39 c40 -41 88 -118 77
-123 -2 -1 -41 4 -88 10 -47 6 -80 12 -75 13 6 2 23 4 39 6 16 2 32 8 35 14 4
6 12 7 21 1 18 -12 30 -13 30 -2 0 4 -27 35 -59 70 -33 35 -53 62 -44 62 8 0
37 -23 64 -51z m-82 -8 c17 -13 19 -18 7 -18 -9 0 -23 9 -33 19 -21 23 -5 23
26 -1z m-614 -52 c-28 -28 -68 -65 -90 -82 l-40 -32 22 30 c31 44 134 135 151
135 4 0 -16 -23 -43 -51z m170 -59 c-3 -5 -16 -10 -28 -9 -20 1 -20 2 3 9 14
4 26 8 28 9 2 1 0 -3 -3 -9z m-391 -195 c-9 -14 -20 -22 -26 -19 -5 3 -2 14 8
25 25 27 37 23 18 -6z"/>
<path d="M3240 9166 c23 -30 50 -76 60 -103 14 -37 20 -44 25 -30 11 26 -20
97 -61 145 -54 63 -73 53 -24 -12z"/>
<path d="M4153 9193 c-29 -32 -83 -139 -83 -166 0 -28 20 -9 40 39 11 24 38
69 60 99 29 40 36 55 25 55 -9 0 -28 -12 -42 -27z"/>
<path d="M4062 9156 c-12 -16 -24 -44 -27 -65 -3 -20 -8 -44 -10 -53 -2 -10 1
-18 5 -18 5 0 12 15 15 33 4 17 16 49 27 70 24 49 19 69 -10 33z"/>
<path d="M3394 8818 c73 -114 92 -153 106 -223 26 -124 -10 -321 -103 -571
-50 -133 -67 -203 -67 -271 0 -66 14 -43 34 57 10 46 40 142 66 212 78 206
105 330 105 478 l0 125 -42 85 c-49 98 -111 183 -136 188 -13 3 -3 -20 37 -80z"/>
<path d="M4520 8846 c-77 -23 -120 -44 -120 -60 0 -20 -7 -21 80 9 109 37 187
41 292 16 102 -24 197 -66 252 -110 47 -38 62 -40 40 -5 -27 40 -125 101 -211
130 -94 32 -260 42 -333 20z"/>
<path d="M2851 8830 c-104 -22 -285 -137 -335 -214 -14 -22 -24 -42 -21 -44 3
-3 31 20 63 51 158 150 312 202 477 162 71 -17 85 -18 85 -6 0 17 -95 49 -160
54 -36 3 -85 2 -109 -3z"/>
<path d="M4533 8745 c-53 -16 -121 -56 -150 -87 -32 -35 -65 -104 -61 -130 3
-20 6 -18 26 19 43 81 132 147 215 157 20 2 37 1 37 -2 0 -4 -12 -25 -26 -46
-19 -28 -28 -56 -32 -102 -6 -84 15 -142 71 -189 l42 -35 -90 0 c-75 -1 -87
-3 -70 -13 26 -16 432 -14 448 2 8 8 -13 11 -77 11 l-88 0 31 35 c47 54 64 94
68 165 4 55 1 72 -21 115 -14 27 -24 50 -22 52 8 8 168 -103 211 -146 57 -59
79 -67 64 -21 -14 39 -127 144 -191 176 -99 50 -289 70 -385 39z m155 -94 c19
-12 11 -81 -10 -95 -26 -16 -52 4 -56 43 -5 50 28 76 66 52z"/>
<path d="M2860 8729 c-71 -12 -206 -77 -260 -125 -47 -42 -93 -124 -88 -157 2
-18 9 -13 36 30 46 72 113 130 188 164 35 16 68 29 73 29 5 0 1 -23 -10 -50
-42 -110 -14 -225 69 -287 l44 -33 -134 -1 c-83 0 -126 -4 -113 -9 48 -21 425
0 425 23 0 5 -15 7 -35 4 -41 -7 -45 6 -11 28 35 23 55 58 66 115 9 47 7 67
-17 174 l-6 29 43 -24 c26 -14 59 -47 84 -82 32 -47 42 -55 44 -39 2 11 -6 38
-16 59 -36 69 -111 125 -198 148 -64 16 -101 17 -184 4z m82 -114 c22 -49 -25
-98 -60 -63 -26 26 -6 88 29 88 11 0 24 -11 31 -25z"/>
<path d="M5338 8491 c-106 -19 -124 -27 -86 -36 47 -12 208 24 208 47 0 10 -3
10 -122 -11z"/>
<path d="M6173 8448 c-101 -96 -210 -261 -266 -401 -33 -81 -33 -85 -5 -114
18 -20 23 -39 26 -96 5 -94 -9 -144 -58 -206 -40 -50 -65 -99 -56 -108 9 -10
25 8 82 92 57 84 58 86 62 171 3 62 0 103 -13 150 -17 62 -17 67 0 112 22 60
123 232 136 232 6 0 24 -30 42 -67 28 -60 32 -78 32 -153 0 -47 -4 -107 -9
-135 -8 -45 -7 -49 7 -37 20 17 38 93 39 168 0 64 -19 131 -60 206 -18 35 -23
53 -16 68 10 22 123 140 134 140 8 0 20 -50 20 -86 0 -17 4 -22 15 -18 18 7
20 71 3 109 -18 40 -51 32 -115 -27z"/>
<path d="M2170 8431 c0 -21 77 -44 150 -45 102 -1 106 17 6 26 -44 4 -93 12
-109 18 -37 12 -47 13 -47 1z"/>
<path d="M5262 8369 c2 -7 41 -21 88 -31 45 -9 92 -21 104 -24 18 -6 19 -5 8
9 -27 32 -209 74 -200 46z"/>
<path d="M2340 8294 c-95 -50 -126 -71 -118 -80 8 -7 152 66 197 100 53 40 15
30 -79 -20z"/>
<path d="M4272 8228 c7 -20 127 -77 197 -92 78 -18 66 0 -19 29 -30 10 -81 31
-112 47 -65 32 -71 33 -66 16z"/>
<path d="M3214 8198 c-27 -17 -76 -42 -109 -55 -33 -14 -71 -29 -84 -34 -13
-5 -21 -12 -18 -15 9 -9 167 46 209 72 30 19 69 64 55 64 -2 0 -25 -14 -53
-32z"/>
<path d="M5160 8222 c0 -5 21 -13 48 -17 56 -8 124 -36 168 -70 45 -34 64 -31
30 4 -41 42 -130 84 -192 89 -33 3 -54 0 -54 -6z"/>
<path d="M2435 8153 c-43 -17 -94 -52 -125 -86 -32 -34 -13 -33 35 2 25 18 74
46 110 62 36 16 65 31 65 34 0 10 -46 3 -85 -12z"/>
<path d="M4220 7816 c0 -2 11 -24 25 -47 30 -53 34 -142 9 -190 -16 -32 -14
-46 6 -34 20 13 40 72 40 120 0 48 -20 108 -47 137 -15 16 -33 24 -33 14z"/>
<path d="M3173 7743 c-36 -63 -38 -139 -4 -199 30 -53 61 -69 125 -66 38 2 48
0 39 -9 -7 -7 -40 -11 -80 -11 -95 2 -168 -20 -318 -93 -224 -109 -305 -219
-305 -415 0 -95 39 -145 61 -80 14 38 28 38 35 1 4 -16 16 -39 29 -51 l22 -21
32 56 c17 31 37 58 45 61 25 9 102 -34 135 -75 97 -122 306 -227 529 -266 149
-26 476 -13 609 25 176 49 482 229 555 326 18 24 39 44 46 44 8 0 38 -7 68
-16 97 -28 114 2 19 31 -30 10 -55 22 -55 27 0 5 -4 7 -8 4 -4 -2 -14 -1 -22
4 -12 7 -12 10 3 15 10 4 36 -4 64 -20 l48 -26 -31 28 c-52 47 -72 62 -78 56
-8 -8 -36 17 -36 33 0 23 127 -65 181 -125 27 -31 54 -72 60 -93 28 -107 61
42 40 182 -15 101 -58 187 -123 244 -121 110 -347 179 -590 180 -104 1 -134 4
-126 13 6 8 2 17 -17 29 -21 13 -40 16 -99 11 -81 -6 -122 -23 -226 -94 -65
-45 -65 -45 -141 -41 -68 3 -86 8 -166 50 -108 56 -150 66 -194 44 -29 -14
-35 -14 -55 -2 -27 19 -60 71 -68 112 -6 28 6 76 39 157 15 37 -15 15 -42 -30z
m1262 -299 c39 -8 92 -19 118 -24 27 -5 56 -15 65 -21 17 -10 -11 -8 -73 7
-11 3 -42 9 -70 14 -27 6 -61 12 -75 15 -85 17 -93 17 -86 7 4 -6 -2 -8 -14
-5 -11 3 -17 9 -14 14 8 13 70 11 149 -7z m-1255 -43 c0 -5 -7 -12 -16 -15
-14 -5 -15 -4 -4 9 14 17 20 19 20 6z m54 -32 c-10 -11 -28 -26 -39 -31 -11
-6 -4 5 15 24 37 37 57 43 24 7z m1167 -2 c-13 -13 -26 -3 -16 12 3 6 11 8 17
5 6 -4 6 -10 -1 -17z m360 -23 c31 -19 71 -50 89 -71 50 -57 91 -153 95 -220
1 -32 6 -71 10 -88 6 -26 3 -23 -24 18 -43 67 -70 91 -135 124 -53 27 -56 30
-42 48 14 18 15 18 16 3 0 -10 6 -18 14 -18 8 0 16 -3 18 -7 5 -13 76 -63 87
-63 6 0 11 -6 11 -14 0 -7 7 -19 15 -26 12 -10 16 -10 20 2 6 16 -38 151 -61
186 -15 23 -16 23 -30 5 -14 -17 -15 -17 -5 3 12 24 -3 41 -77 89 -45 30 -67
28 -39 -3 18 -20 22 -42 8 -42 -10 0 -24 35 -25 65 -1 11 -12 25 -24 31 -36
18 -39 26 -7 18 16 -4 55 -22 86 -40z m-669 -74 l30 -45 -46 50 c-26 28 -53
64 -62 80 -15 30 -14 30 16 -5 18 -19 45 -55 62 -80z m13 70 c10 -11 14 -20 9
-20 -5 0 -15 9 -22 20 -7 11 -11 20 -9 20 2 0 12 -9 22 -20z m676 -67 c13 -16
12 -17 -3 -4 -10 7 -18 15 -18 17 0 8 8 3 21 -13z m46 -27 c0 -8 -6 -12 -14
-9 -7 3 -13 9 -13 14 0 5 6 9 13 9 8 0 14 -6 14 -14z m-1358 -63 c-34 -56
-109 -143 -133 -154 -12 -5 -32 -17 -45 -26 -24 -17 -24 -17 -13 4 13 23 29
36 48 39 18 3 87 74 123 127 38 56 52 63 20 10z m-719 -13 c-6 -11 -13 -20
-16 -20 -2 0 0 9 6 20 6 11 13 20 16 20 2 0 0 -9 -6 -20z m-32 -55 c-6 -14
-13 -23 -15 -21 -5 5 15 46 22 46 3 0 -1 -11 -7 -25z m2129 10 c0 -8 -4 -12
-9 -9 -5 3 -6 10 -3 15 9 13 12 11 12 -6z m-1385 -47 c-7 -7 -12 -8 -12 -2 0
14 12 26 19 19 2 -3 -1 -11 -7 -17z m213 -24 c33 -43 21 -44 -22 -2 l-33 32
-50 -21 c-28 -12 -50 -18 -50 -13 0 8 54 33 78 37 8 1 16 4 19 7 10 9 32 -6
58 -40z m73 26 c6 0 12 -4 12 -10 0 -15 -34 -12 -56 6 -18 15 -18 15 6 10 14
-3 31 -6 38 -6z m-872 -82 c-42 -46 -83 -97 -91 -115 -9 -18 -18 -33 -20 -33
-3 0 -5 26 -5 59 0 51 3 61 24 74 l24 16 -16 -32 c-26 -51 -23 -65 6 -28 47
60 128 141 141 141 7 0 -21 -37 -63 -82z m1104 72 c0 -5 -7 -10 -16 -10 -8 0
-12 5 -9 10 3 6 10 10 16 10 5 0 9 -4 9 -10z m-137 -7 c-7 -2 -21 -2 -30 0
-10 3 -4 5 12 5 17 0 24 -2 18 -5z m737 -4 c0 -8 81 -39 103 -39 9 0 17 -4 17
-10 0 -17 -23 -11 -95 24 -39 19 -60 34 -47 33 12 -1 22 -4 22 -8z m-1402 -19
c-7 -11 -17 -20 -22 -20 -5 0 -1 9 9 20 10 11 20 20 22 20 2 0 -2 -9 -9 -20z
m285 -10 c7 -1 -1 -7 -18 -14 -41 -18 -51 -9 -23 21 19 20 24 22 26 9 2 -9 9
-16 15 -16z m380 8 c20 0 37 -3 37 -9 0 -14 -72 -10 -100 7 l-25 15 25 -7 c14
-4 42 -7 63 -6z m377 -9 c24 -7 24 -7 -5 -8 -16 0 -41 6 -55 14 l-25 15 30 -7
c17 -3 41 -10 55 -14z m-230 2 c0 -5 -11 -8 -24 -7 -13 0 -22 4 -19 9 6 10 43
9 43 -2z m524 -12 c18 3 26 0 26 -9 0 -13 -60 -13 -80 0 -12 8 -11 10 8 10 12
0 22 6 22 13 0 9 2 9 9 -1 4 -8 11 -13 15 -13z m-888 -4 c18 -13 15 -14 -28
-15 -45 0 -63 12 -35 23 23 10 43 7 63 -8z m-905 -33 c-11 -21 -27 -45 -37
-53 -19 -15 -22 -22 31 66 24 39 28 30 6 -13z m475 12 c-15 -14 -31 -23 -34
-20 -9 9 30 46 47 46 11 -1 8 -8 -13 -26z m1061 -6 c30 8 57 9 81 3 20 -5 58
-12 84 -16 53 -7 65 -25 48 -69 -20 -54 -144 -87 -173 -46 -14 20 -14 20 -25
-5 -20 -42 -160 -61 -183 -24 -6 11 -13 9 -31 -8 -25 -24 -109 -42 -208 -46
-57 -2 -64 0 -84 26 l-22 28 -13 -27 -12 -27 -116 7 c-81 4 -129 12 -159 26
-24 10 -44 15 -44 11 0 -12 -48 -31 -81 -31 -68 0 -122 44 -136 110 -8 42 12
63 52 56 17 -4 45 -1 62 4 18 7 165 12 374 13 295 2 349 4 369 18 21 14 31 14
98 1 61 -12 84 -13 119 -4z m-1197 8 c0 -3 -4 -8 -10 -11 -5 -3 -10 -1 -10 4
0 6 5 11 10 11 6 0 10 -2 10 -4z m80 -15 c-12 -24 -29 -35 -38 -26 -4 3 4 15
18 25 31 24 33 24 20 1z m-210 -26 c10 -12 10 -15 -4 -15 -9 0 -16 7 -16 15 0
8 2 15 4 15 2 0 9 -7 16 -15z m1265 -175 c61 -1 74 -4 57 -11 -13 -5 -35 -6
-48 -3 -20 5 -23 3 -18 -10 5 -12 2 -15 -12 -10 -17 5 -17 4 0 -7 16 -9 21 -9
24 0 3 9 7 9 19 0 11 -10 16 -10 23 0 4 8 13 11 19 7 6 -4 20 -2 31 4 16 8 22
8 26 -3 3 -9 14 -13 27 -11 12 3 -5 -9 -38 -25 -193 -95 -248 -106 -545 -106
l-235 0 -109 33 c-60 18 -111 34 -113 35 -2 2 6 12 17 22 20 18 21 18 14 -1
-4 -10 -4 -16 1 -12 4 4 32 -2 62 -14 39 -14 57 -17 64 -9 5 6 6 9 3 6 -4 -2
-16 2 -26 10 -11 7 -27 11 -34 8 -8 -3 -14 0 -14 6 0 6 -6 11 -14 11 -20 0
-36 23 -27 38 4 8 21 20 36 28 24 12 37 12 100 -1 152 -31 445 -24 570 13 17
5 37 8 45 6 8 -1 51 -3 95 -4z"/>
<path d="M4095 6750 c28 -12 37 -12 30 0 -3 6 -16 10 -28 9 -21 0 -21 -1 -2
-9z"/>
<path d="M3369 6723 c-11 -15 -11 -16 0 -6 7 6 20 9 29 6 10 -4 13 -2 8 5 -10
17 -21 15 -37 -5z"/>
<path d="M3545 6720 c-3 -5 -1 -10 4 -10 6 0 11 5 11 10 0 6 -2 10 -4 10 -3 0
-8 -4 -11 -10z"/>
<path d="M3460 6716 c0 -2 6 -9 13 -15 10 -8 14 -7 14 4 0 8 -6 15 -14 15 -7
0 -13 -2 -13 -4z"/>
<path d="M4034 6704 c-18 -14 -18 -15 4 -4 12 6 22 13 22 15 0 8 -5 6 -26 -11z"/>
<path d="M4215 6709 c-16 -5 -52 -12 -80 -15 -27 -3 -51 -7 -54 -10 -2 -2 22
-2 55 1 32 3 71 6 85 8 27 2 63 28 37 26 -7 0 -26 -5 -43 -10z"/>
<path d="M3995 6690 c3 -5 8 -10 11 -10 2 0 4 5 4 10 0 6 -5 10 -11 10 -5 0
-7 -4 -4 -10z"/>
<path d="M3740 6676 c0 -2 7 -7 16 -10 8 -3 12 -2 9 4 -6 10 -25 14 -25 6z"/>
<path d="M3576 6647 c3 -10 9 -15 12 -12 3 3 0 11 -7 18 -10 9 -11 8 -5 -6z"/>
<path d="M4565 7560 c-7 -11 38 -38 180 -105 160 -75 173 -82 222 -122 75 -60
106 -140 116 -293 l2 -45 13 43 c16 54 8 138 -20 205 -29 67 -110 138 -221
191 -197 95 -287 134 -292 126z"/>
<path d="M3009 7524 c-46 -48 -95 -81 -214 -143 -120 -63 -176 -107 -211 -167
-33 -55 -43 -152 -23 -210 l14 -39 6 91 c10 162 40 198 262 315 121 64 210
132 220 169 8 31 -15 24 -54 -16z"/>
<path d="M5291 7113 c-6 -21 -33 -118 -61 -217 -27 -98 -50 -186 -50 -195 2
-59 110 264 128 382 10 66 -2 86 -17 30z"/>
<path d="M2410 6964 c0 -60 106 -325 164 -410 39 -58 32 -33 -28 96 -30 64
-69 162 -86 218 -30 96 -50 135 -50 96z"/>
<path d="M3985 6319 c-22 -5 -134 -8 -248 -8 -114 1 -211 -1 -214 -5 -18 -18
70 -27 256 -26 207 0 289 10 299 38 4 14 -31 14 -93 1z"/>
<path d="M4805 6020 c-5 -8 -23 -42 -40 -75 -17 -33 -50 -88 -72 -122 -49 -74
-42 -82 15 -18 50 57 114 178 110 208 -2 18 -5 19 -13 7z"/>
<path d="M5700 10071 c0 -5 7 -11 14 -14 10 -4 13 -1 9 9 -6 15 -23 19 -23 5z"/>
<path d="M5745 10070 c-3 -5 -1 -10 4 -10 6 0 11 5 11 10 0 6 -2 10 -4 10 -3
0 -8 -4 -11 -10z"/>
<path d="M3450 5305 c0 -19 38 -71 95 -131 56 -59 56 -59 35 -18 -24 45 -129
165 -130 149z"/>
<path d="M2752 3386 c-16 -19 -41 -61 -53 -93 -22 -52 -24 -73 -24 -213 l0
-155 33 -68 c25 -51 42 -72 67 -84 64 -31 117 4 156 103 21 53 23 76 24 214 0
124 -4 166 -18 210 -39 117 -123 156 -185 86z"/>
<path d="M4670 2632 c0 -29 46 -69 101 -87 162 -54 618 -86 947 -66 292 17
428 43 519 99 35 22 75 72 57 72 -3 0 -34 -18 -70 -39 -67 -41 -181 -73 -294
-85 -349 -37 -865 -18 -1114 41 -51 12 -79 25 -108 51 -34 31 -38 32 -38 14z"/>
<path d="M4858 2353 c7 -3 16 -2 19 1 4 3 -2 6 -13 5 -11 0 -14 -3 -6 -6z"/>
<path d="M3167 2663 c4 -9 8 -12 10 -6 2 6 13 9 23 6 11 -3 20 0 20 6 0 6 -13
11 -30 11 -24 0 -28 -3 -23 -17z"/>
<path d="M3425 2430 c-3 -5 7 -8 24 -7 16 1 27 5 24 10 -6 10 -41 9 -48 -3z"/>
<path d="M2835 2360 c3 -5 8 -10 11 -10 2 0 4 5 4 10 0 6 -5 10 -11 10 -5 0
-7 -4 -4 -10z"/>
<path d="M2260 1935 c-15 -8 -19 -14 -10 -14 18 -1 46 16 40 23 -3 2 -16 -2
-30 -9z"/>
<path d="M2190 1910 c-8 -5 -10 -10 -5 -10 6 0 17 5 25 10 8 5 11 10 5 10 -5
0 -17 -5 -25 -10z"/>
<path d="M2030 1903 c0 -12 71 -14 105 -4 25 8 19 9 -37 10 -38 1 -68 -2 -68
-6z"/>
<path d="M2760 1896 c0 -2 7 -6 15 -10 8 -3 15 -1 15 4 0 6 -7 10 -15 10 -8 0
-15 -2 -15 -4z"/>
<path d="M2060 1817 c-24 -11 -24 -11 14 -15 44 -4 70 3 61 18 -8 13 -43 12
-75 -3z"/>
<path d="M3050 1770 c0 -11 21 -11 65 0 27 7 25 8 -17 9 -27 0 -48 -3 -48 -9z"/>
<path d="M2525 1741 c-23 -11 -31 -10 123 -15 79 -3 111 -1 103 7 -13 13 -200
20 -226 8z"/>
<path d="M1580 1651 c0 -7 103 -41 123 -41 7 1 0 7 -14 15 -32 17 -109 36
-109 26z"/>
<path d="M3555 1614 c-31 -27 -29 -28 18 -4 15 7 27 17 27 22 0 14 -14 8 -45
-18z"/>
<path d="M3145 1589 l-110 -18 80 5 c44 3 109 11 145 19 100 20 15 15 -115 -6z"/>
<path d="M2060 1550 c8 -5 42 -9 75 -9 45 1 54 3 35 9 -38 12 -129 12 -110 0z"/>
<path d="M2650 1529 c-10 -7 14 -8 80 -3 52 4 97 8 99 10 10 9 -166 3 -179 -7z"/>
<path d="M3130 1470 c-8 -5 -11 -12 -8 -15 9 -9 68 5 68 16 0 12 -41 11 -60
-1z"/>
<path d="M1525 1440 c3 -5 11 -10 16 -10 6 0 7 5 4 10 -3 6 -11 10 -16 10 -6
0 -7 -4 -4 -10z"/>
<path d="M1810 1382 c0 -11 148 -47 157 -39 5 6 -6 9 -77 27 -25 6 -53 13 -62
16 -10 3 -18 1 -18 -4z"/>
<path d="M3229 1370 c-13 -10 -21 -19 -18 -20 16 -1 69 23 69 31 0 15 -27 10
-51 -11z"/>
<path d="M2585 1299 c18 -5 33 -5 39 1 7 7 -4 10 -29 9 -40 -1 -40 -1 -10 -10z"/>
<path d="M1021 1694 c-100 -25 -214 -73 -193 -81 7 -3 45 9 85 25 39 16 116
40 170 52 53 12 97 24 97 26 0 10 -74 0 -159 -22z"/>
<path d="M3856 1702 c5 -5 50 -24 99 -42 50 -19 121 -49 158 -67 38 -19 74
-32 80 -30 15 5 -153 90 -241 121 -73 26 -115 34 -96 18z"/>
<path d="M672 1513 c-20 -38 -23 -82 -8 -110 15 -28 15 -28 16 30 0 32 5 67
10 78 7 12 7 19 1 19 -6 0 -14 -8 -19 -17z"/>
<path d="M4310 1403 c-43 -81 -173 -163 -350 -221 -89 -30 -333 -92 -410 -106
-386 -67 -985 -89 -1440 -52 -636 51 -988 125 -1275 266 -101 49 -114 54 -85
28 162 -138 663 -262 1275 -314 231 -20 897 -23 1080 -5 408 40 595 75 860
162 194 63 353 170 368 249 4 18 6 34 4 36 -1 2 -14 -18 -27 -43z"/>
<path d="M1420 810 c0 -5 5 -10 11 -10 5 0 7 5 4 10 -3 6 -8 10 -11 10 -2 0
-4 -4 -4 -10z"/>
<path d="M3254 11805 c11 -8 24 -15 30 -15 5 0 1 7 -10 15 -10 8 -23 14 -29
14 -5 0 -1 -6 9 -14z"/>
<path d="M6602 2158 c4 -44 11 -84 14 -87 10 -10 -2 149 -13 160 -5 5 -6 -21
-1 -73z"/>
<path d="M5540 2180 c-8 -5 -10 -10 -5 -11 123 -10 160 -21 175 -50 13 -23 13
-130 1 -162 -12 -32 -60 -48 -166 -57 l-80 -6 48 -8 c56 -10 139 -1 177 19 53
28 79 155 43 215 -33 56 -145 91 -193 60z"/>
<path d="M6121 2096 c11 -61 19 -71 19 -25 0 20 -6 44 -14 55 -13 17 -13 13
-5 -30z"/>
<path d="M5442 2113 c-16 -30 -24 -100 -16 -135 7 -28 10 -20 20 57 6 50 10
92 8 93 -1 2 -7 -5 -12 -15z"/>
<path d="M5240 1642 c-64 -6 -57 -22 8 -22 108 0 143 -35 144 -144 1 -64 -16
-97 -65 -126 -41 -26 -90 -25 -136 1 -61 34 -76 64 -76 147 0 60 -2 69 -12 55
-22 -29 -16 -125 10 -164 68 -102 207 -104 281 -5 40 53 23 193 -29 236 -19
16 -78 26 -125 22z"/>
<path d="M6467 1525 c-4 -33 -10 -75 -13 -92 -3 -19 -1 -33 5 -33 13 0 23 73
19 135 l-3 50 -8 -60z"/>
<path d="M5133 1198 c-23 -29 -43 -79 -43 -107 0 -28 49 -101 50 -74 0 6 -4
14 -9 17 -21 13 -22 76 -1 123 20 46 22 65 3 41z"/>
<path d="M6288 1000 c-4 -19 -10 -55 -13 -80 -3 -25 -9 -56 -12 -69 -4 -16 -2
-22 5 -17 16 10 34 105 30 156 l-4 45 -6 -35z"/>
<path d="M5205 833 c-3 -8 -5 -39 -5 -69 0 -56 2 -60 70 -118 58 -49 111 -53
151 -10 29 31 40 142 16 162 -12 10 -14 9 -14 -5 0 -93 -4 -121 -23 -141 -16
-17 -28 -21 -48 -16 -36 9 -96 39 -110 56 -13 17 -16 69 -7 119 6 29 4 36 -9
36 -8 0 -18 -7 -21 -14z"/>
<path d="M814 673 c3 -10 12 -49 20 -86 14 -68 21 -85 31 -75 9 8 -36 178 -47
178 -5 0 -7 -8 -4 -17z"/>
<path d="M6132 512 c-7 -31 -15 -67 -18 -79 -9 -34 12 -28 26 7 7 17 20 35 29
40 10 6 11 10 4 10 -7 0 -13 12 -13 28 0 55 -16 52 -28 -6z"/>
<path d="M3309 493 c-31 -32 -108 -119 -171 -193 -64 -75 -131 -147 -149 -161
-55 -41 -210 -120 -254 -129 -35 -7 -30 -8 38 -9 42 -1 77 3 77 8 0 5 21 18
48 29 93 40 137 84 410 406 46 55 78 106 64 106 -4 0 -33 -26 -63 -57z"/>
<path d="M751 186 c-1 -21 37 -134 52 -153 5 -7 6 -17 2 -23 -4 -6 15 -10 57
-9 56 1 59 2 25 9 -20 4 -39 9 -41 11 -2 2 -24 44 -49 94 -25 50 -46 81 -46
71z"/>
<path d="M6887 36 c-3 -8 -30 -19 -59 -24 l-53 -10 78 -1 c73 -1 77 0 68 18
-6 10 -7 21 -4 25 3 3 -1 6 -9 6 -9 0 -18 -6 -21 -14z"/>
<path d="M1008 3 c7 -3 16 -2 19 1 4 3 -2 6 -13 5 -11 0 -14 -3 -6 -6z"/>
</g>
</svg>
